<?xml version="1.0" encoding="UTF-8"?>
<svg width="353px" height="140px" viewBox="0 0 353 140" version="1.1" xmlns="http://www.w3.org/2000/svg" xmlns:xlink="http://www.w3.org/1999/xlink">
    <!-- Generator: Sketch 52.4 (67378) - http://www.bohemiancoding.com/sketch -->
    <title>logo</title>
    <desc>Created with Sketch.</desc>
    <defs>
        <path d="M0.0812903226,0.0415333333 L0.0812903226,41.7928 L5.97258065,41.7928 L5.97258065,25.1188 L9.688,25.1188 L20.6179355,41.734 L20.6658065,41.8063333 L27.6947097,41.8063333 L16.0010968,24.7258667 C21.2827097,23.0477333 24.6824516,18.2812 24.6824516,12.5038667 C24.6824516,5.1646 19.5701935,0.0415333333 12.2215484,0.0415333333 L0.0812903226,0.0415333333 Z M5.98522581,5.45533333 L12.2310323,5.45533333 C13.3880645,5.45533333 15.0590323,5.68026667 16.4387097,6.74986667 C17.998129,7.9394 18.7875484,9.8784 18.7875484,12.5206667 L18.7902581,12.5038667 C18.7902581,14.8166667 18.1069677,16.7589333 16.8736129,18.0077333 C15.6818065,19.2033333 13.9981935,19.8375333 12.0237419,19.8375333 L5.98522581,19.8375333 L5.98522581,5.45533333 Z" id="path-1"></path>
        <polygon id="path-3" points="29.5586667 0.0540967742 18.7488889 28.1502043 6.73511111 0.155817204 6.69422222 0.0540967742 0.390222222 0.0540967742 18.7488889 42.8451075 35.9066667 0.0540967742"></polygon>
        <path d="M2.83947541,10.9601739 C2.83947541,16.6183043 8.20078689,19.5911739 13.4455082,21.7532609 C19.8097705,24.3892174 21.6481311,26.1541304 21.6481311,29.6081739 C21.6481311,31.5826304 21.0477377,33.1987174 19.8657705,34.4130652 C18.4818361,35.7771522 16.4814426,36.4678696 13.9260984,36.4678696 C12.4710164,36.476087 11.0402623,36.0971739 9.78255738,35.3699348 C8.2627541,34.5162391 7.05462295,33.1083261 6.19121311,31.194587 L6.13521311,31.0754348 L0.336459016,32.3998043 L0.404393443,32.5746522 C3.37239344,40.161587 9.54570492,41.7548478 14.2056393,41.7548478 C22.4371803,41.7548478 27.970623,36.8723478 27.970623,29.6081739 C27.9834754,23.6396087 24.4765902,19.6875 16.6209836,16.7995435 C14.3672131,15.9851087 9.12937705,13.7842174 9.12937705,10.9113261 C9.12937705,7.50886957 11.5300328,5.39243478 15.3935738,5.39243478 C17.780459,5.39243478 20.0695738,6.68484783 21.280918,7.97771739 L21.3819016,8.08454348 L25.8114098,4.66884783 L25.6939016,4.5401087 C23.017377,1.7073913 19.291082,0.0899347826 15.3843934,0.0639130435 C6.13521311,0.0639130435 2.83947541,5.69282609 2.83947541,10.9601739 Z" id="path-5"></path>
    </defs>
    <g id="Page-1" stroke="none" stroke-width="1" fill="none" fill-rule="evenodd">
        <g id="homepag_v6-copy-3" transform="translate(-180.000000, -10927.000000)">
            <g id="footer" transform="translate(-1.000000, 10876.000000)">
                <g id="logo" transform="translate(181.000000, 51.000000)">
                    <polygon id="Fill-1" fill="#3CBA8D" points="34 85.5 40 85.5 40 64.5 34 64.5"></polygon>
                    <polygon id="Fill-2" fill="#3CBA8D" points="80 75.5 86 75.5 86 54.5 80 54.5"></polygon>
                    <polygon id="Fill-3" fill="#3CBA8D" points="37.4793015 53.5319858 37.4282704 53.5 35 57.7279853 53.5175373 68.4711677 53.5685684 68.5 56 64.2747177"></polygon>
                    <polygon id="Fill-4" fill="#3CBA8D" points="66.4789032 71.5315363 66.4283226 71.5 64 75.7281123 82.5174839 86.4711668 82.572129 86.5 85 82.2750413"></polygon>
                    <polygon id="Fill-5" fill="#FFFFFF" points="60 8.5 62 8.5 62 0.5 60 0.5"></polygon>
                    <polygon id="Fill-6" fill="#FFFFFF" points="60 8.5 62 8.5 62 0.5 60 0.5"></polygon>
                    <polygon id="Fill-7" fill="#FFFFFF" points="60 8.5 62 8.5 62 0.5 60 0.5"></polygon>
                    <polygon id="Fill-8" fill="#FFFFFF" points="47 7.18840958 53.6237462 11.5 55 8.81159042 48.3762538 4.5"></polygon>
                    <polygon id="Fill-9" fill="#FFFFFF" points="47 7.18776592 53.6237462 11.5 55 8.81171158 48.3762538 4.5"></polygon>
                    <polygon id="Fill-10" fill="#FFFFFF" points="47 7.18776592 53.62336 11.5 55 8.81171158 48.3761735 4.5"></polygon>
                    <polygon id="Fill-11" fill="#FFFFFF" points="70.624388 4.5 64 8.81191223 65.3793425 11.5 72 7.18861024"></polygon>
                    <polygon id="Fill-12" fill="#FFFFFF" points="64 8.81138976 65.3793425 11.5 72 7.18756531 70.6248543 4.5"></polygon>
                    <polygon id="Fill-13" fill="#FFFFFF" points="64 8.81171158 65.3793425 11.5 72 7.18776592 70.6248543 4.5"></polygon>
                    <polygon id="Fill-14" fill="#FFFFFF" points="35 50.5 40 50.5 40 35.5 35 35.5"></polygon>
                    <polygon id="Fill-15" fill="#FFFFFF" points="35 50.5 40 50.5 40 35.5 35 35.5"></polygon>
                    <polygon id="Fill-16" fill="#FFFFFF" points="35 50.5 40 50.5 40 35.5 35 35.5"></polygon>
                    <polygon id="Fill-17" fill="#FFFFFF" points="18 47.8237236 31.1094942 55.5 33 52.1757923 19.8914674 44.5"></polygon>
                    <polygon id="Fill-18" fill="#FFFFFF" points="18 47.8235773 31.1094942 55.5 33 52.1759386 19.8909866 44.5"></polygon>
                    <polygon id="Fill-19" fill="#FFFFFF" points="18 47.8233857 31.109074 55.5 33 52.1756459 19.890926 44.5"></polygon>
                    <polygon id="Fill-20" fill="#FFFFFF" points="19.8914068 69.5 33 61.8243993 31.109074 58.5 18 66.1760849"></polygon>
                    <polygon id="Fill-21" fill="#FFFFFF" points="18 66.1754544 19.8909866 69.5 33 61.8240614 31.1094942 58.5"></polygon>
                    <polygon id="Fill-22" fill="#FFFFFF" points="18 66.1754544 19.890926 69.5 33 61.8240614 31.109074 58.5"></polygon>
                    <polygon id="Fill-23" fill="#FFFFFF" points="57 36.5 62 36.5 62 21.5 57 21.5"></polygon>
                    <polygon id="Fill-24" fill="#FFFFFF" points="57 36.5 62 36.5 62 21.5 57 21.5"></polygon>
                    <polygon id="Fill-25" fill="#FFFFFF" points="57 36.5 62 36.5 62 21.5 57 21.5"></polygon>
                    <polygon id="Fill-26" fill="#FFFFFF" points="40 33.8237236 53.1056478 41.5 55 38.1757923 41.8914674 30.5"></polygon>
                    <polygon id="Fill-27" fill="#FFFFFF" points="40 33.8237236 53.1056478 41.5 55 38.1762764 41.8914674 30.5"></polygon>
                    <polygon id="Fill-28" fill="#FFFFFF" points="40 33.8237236 53.105167 41.5 55 38.1757923 41.8914674 30.5"></polygon>
                    <polygon id="Fill-29" fill="#FFFFFF" points="41.8914068 55.5 55 47.8240614 53.1052277 44.5 40 52.1759386"></polygon>
                    <polygon id="Fill-30" fill="#FFFFFF" points="40 52.1757923 41.8914674 55.5 55 47.8232394 53.1056478 44.5"></polygon>
                    <polygon id="Fill-31" fill="#FFFFFF" points="40 52.1757923 41.8914674 55.5 55 47.8237236 53.105167 44.5"></polygon>
                    <polygon id="Fill-32" fill="#FFFFFF" points="57 62.5 62 62.5 62 47.5 57 47.5"></polygon>
                    <polygon id="Fill-33" fill="#FFFFFF" points="57 62.5 62 62.5 62 47.5 57 47.5"></polygon>
                    <polygon id="Fill-34" fill="#FFFFFF" points="57 62.5 62 62.5 62 47.5 57 47.5"></polygon>
                    <polygon id="Fill-35" fill="#FFFFFF" points="79 52.1757923 65.8905058 44.5 64 47.8237236 77.1085326 55.5"></polygon>
                    <polygon id="Fill-36" fill="#FFFFFF" points="64 47.8235773 77.1094942 55.5 79 52.1759386 65.8909866 44.5"></polygon>
                    <polygon id="Fill-37" fill="#FFFFFF" points="64 47.8233857 77.1094942 55.5 79 52.1756459 65.8909866 44.5"></polygon>
                    <polygon id="Fill-38" fill="#FFFFFF" points="77.1085932 30.5 64 38.1754544 65.890926 41.5 79 33.8235773"></polygon>
                    <polygon id="Fill-39" fill="#FFFFFF" points="64 38.1757923 65.8909866 41.5 79 33.8232394 77.1094942 30.5"></polygon>
                    <polygon id="Fill-40" fill="#FFFFFF" points="64 38.1757923 65.8909866 41.5 79 33.8237236 77.1094942 30.5"></polygon>
                    <polygon id="Fill-41" fill="#FFFFFF" points="57 92.5 62 92.5 62 77.5 57 77.5"></polygon>
                    <polygon id="Fill-42" fill="#FFFFFF" points="57 92.5 62 92.5 62 77.5 57 77.5"></polygon>
                    <polygon id="Fill-43" fill="#FFFFFF" points="57 92.5 62 92.5 62 77.5 57 77.5"></polygon>
                    <polygon id="Fill-44" fill="#FFFFFF" points="40 89.8213578 53.1056478 97.5 55 94.1752521 41.8914674 86.5"></polygon>
                    <polygon id="Fill-45" fill="#FFFFFF" points="40 89.8215496 53.1061286 97.5 55 94.1750605 41.8914674 86.5"></polygon>
                    <polygon id="Fill-46" fill="#FFFFFF" points="40 89.8215496 53.1061286 97.5 55 94.1750605 41.8919482 86.5"></polygon>
                    <polygon id="Fill-47" fill="#FFFFFF" points="41.8914068 111.5 55 103.82218 53.1052277 100.5 40 108.174914"></polygon>
                    <polygon id="Fill-48" fill="#FFFFFF" points="40 108.174914 41.8914674 111.5 55 103.82218 53.1061286 100.5"></polygon>
                    <polygon id="Fill-49" fill="#FFFFFF" points="40 108.174768 41.8919482 111.5 55 103.821842 53.1061286 100.5"></polygon>
                    <polygon id="Fill-50" fill="#FFFFFF" points="57 120.5 62 120.5 62 105.5 57 105.5"></polygon>
                    <polygon id="Fill-51" fill="#FFFFFF" points="57 120.5 62 120.5 62 105.5 57 105.5"></polygon>
                    <polygon id="Fill-52" fill="#FFFFFF" points="57 120.5 62 120.5 62 105.5 57 105.5"></polygon>
                    <polygon id="Fill-53" fill="#FFFFFF" points="76 107.174914 62.8909866 99.5 61 102.82218 74.1085326 110.5"></polygon>
                    <polygon id="Fill-54" fill="#FFFFFF" points="64 103.821842 77.1089528 111.5 79 108.174768 65.8910472 100.5"></polygon>
                    <polygon id="Fill-55" fill="#FFFFFF" points="64 103.821842 77.1090134 111.5 79 108.174768 65.8909866 100.5"></polygon>
                    <polygon id="Fill-56" fill="#FFFFFF" points="77.1085932 86.5 64 94.1753984 65.8914068 97.5 79 89.8212116"></polygon>
                    <polygon id="Fill-57" fill="#FFFFFF" points="64 94.1750605 65.8910472 97.5 79 89.8215496 77.1089528 86.5"></polygon>
                    <polygon id="Fill-58" fill="#FFFFFF" points="64 94.1750605 65.8909866 97.5 79 89.8215496 77.1090134 86.5"></polygon>
                    <polygon id="Fill-59" fill="#FFFFFF" points="81 104.5 86 104.5 86 89.5 81 89.5"></polygon>
                    <polygon id="Fill-60" fill="#FFFFFF" points="81 104.5 86 104.5 86 89.5 81 89.5"></polygon>
                    <polygon id="Fill-61" fill="#FFFFFF" points="81 104.5 86 104.5 86 89.5 81 89.5"></polygon>
                    <polygon id="Fill-62" fill="#FFFFFF" points="104 94.1753984 90.8909866 86.5 89 89.8216959 102.105648 97.5"></polygon>
                    <polygon id="Fill-63" fill="#FFFFFF" points="89 89.8215496 102.105648 97.5 104 94.1750605 90.8909866 86.5"></polygon>
                    <polygon id="Fill-64" fill="#FFFFFF" points="89 89.8215496 102.105648 97.5 104 94.1750605 90.8909866 86.5"></polygon>
                    <polygon id="Fill-65" fill="#FFFFFF" points="102.105648 70.5 89 78.1759386 90.8914674 81.5 104 73.8240614"></polygon>
                    <polygon id="Fill-66" fill="#FFFFFF" points="89 78.1762764 90.8909866 81.5 104 73.8237236 102.105648 70.5"></polygon>
                    <polygon id="Fill-67" fill="#FFFFFF" points="89 78.1766143 90.8909866 81.5 104 73.8243541 102.105648 70.5"></polygon>
                    <polygon id="Fill-68" fill="#FFFFFF" points="18 73.8242077 31.1094942 81.5 33 78.1762764 19.8914674 70.5"></polygon>
                    <polygon id="Fill-69" fill="#FFFFFF" points="18 73.8242077 31.1094942 81.5 33 78.1767606 19.8909866 70.5"></polygon>
                    <polygon id="Fill-70" fill="#FFFFFF" points="18 73.8242077 31.109074 81.5 33 78.1762764 19.890926 70.5"></polygon>
                    <polygon id="Fill-71" fill="#FFFFFF" points="35 104.5 40 104.5 40 89.5 35 89.5"></polygon>
                    <polygon id="Fill-72" fill="#FFFFFF" points="35 104.5 40 104.5 40 89.5 35 89.5"></polygon>
                    <polygon id="Fill-73" fill="#FFFFFF" points="35 104.5 40 104.5 40 89.5 35 89.5"></polygon>
                    <polygon id="Fill-74" fill="#FFFFFF" points="81 50.5 86 50.5 86 35.5 81 35.5"></polygon>
                    <polygon id="Fill-75" fill="#FFFFFF" points="81 50.5 86 50.5 86 35.5 81 35.5"></polygon>
                    <polygon id="Fill-76" fill="#FFFFFF" points="81 50.5 86 50.5 86 35.5 81 35.5"></polygon>
                    <polygon id="Fill-77" fill="#FFFFFF" points="65.8943522 69.5 79 61.8243993 77.1090134 58.5 64 66.1760849"></polygon>
                    <polygon id="Fill-78" fill="#FFFFFF" points="64 66.1754544 65.8943522 69.5 79 61.8240614 77.1094942 58.5"></polygon>
                    <polygon id="Fill-79" fill="#FFFFFF" points="64 66.1754544 65.8938714 69.5 79 61.8240614 77.1094942 58.5"></polygon>
                    <polygon id="Fill-80" fill="#FFFFFF" points="104 66.1759386 90.8909907 58.5 89 61.8240614 102.108047 69.5"></polygon>
                    <polygon id="Fill-81" fill="#FFFFFF" points="89 61.8240614 102.108047 69.5 104 66.1754544 90.8909907 58.5"></polygon>
                    <polygon id="Fill-82" fill="#FFFFFF" points="89 61.8240614 102.108047 69.5 104 66.1754544 90.8905098 58.5"></polygon>
                    <polygon id="Fill-83" fill="#FFFFFF" points="102.108108 44.5 89 52.1754544 90.891411 55.5 104 47.8235773"></polygon>
                    <polygon id="Fill-84" fill="#FFFFFF" points="89 52.1757923 90.8909907 55.5 104 47.8232394 102.108047 44.5"></polygon>
                    <polygon id="Fill-85" fill="#FFFFFF" points="89 52.1757923 90.8905098 55.5 104 47.8237236 102.108047 44.5"></polygon>
                    <polygon id="Fill-86" fill="#FFFFFF" points="53.1085932 70.5 40 78.1759386 41.8947723 81.5 55 73.8240614"></polygon>
                    <polygon id="Fill-87" fill="#FFFFFF" points="40 78.1762764 41.894833 81.5 55 73.8237236 53.1085326 70.5"></polygon>
                    <polygon id="Fill-88" fill="#FFFFFF" points="40 78.1766143 41.894833 81.5 55 73.8243541 53.1090134 70.5"></polygon>
                    <polygon id="Fill-89" fill="#FFFFFF" points="31.1057085 86.5 18 94.1753984 19.8914068 97.5 33 89.8212116"></polygon>
                    <polygon id="Fill-90" fill="#FFFFFF" points="18 94.1750605 19.8908654 97.5 33 89.8215496 31.1052885 86.5"></polygon>
                    <polygon id="Fill-91" fill="#FFFFFF" points="18 94.1750605 19.8908654 97.5 33 89.8215496 31.1052885 86.5"></polygon>
                    <polygon id="Fill-92" fill="#FFFFFF" points="35 22.5 37 22.5 37 14.5 35 14.5"></polygon>
                    <polygon id="Fill-93" fill="#FFFFFF" points="35 22.5 37 22.5 37 14.5 35 14.5"></polygon>
                    <polygon id="Fill-94" fill="#FFFFFF" points="35 22.5 37 22.5 37 14.5 35 14.5"></polygon>
                    <polygon id="Fill-95" fill="#FFFFFF" points="23 22.1870058 29.6210434 26.5 31 23.8088169 24.3789566 19.5"></polygon>
                    <polygon id="Fill-96" fill="#FFFFFF" points="23 22.187528 29.6211238 26.5 31 23.8093391 24.3788762 19.5"></polygon>
                    <polygon id="Fill-97" fill="#FFFFFF" points="23 22.1877285 29.6207379 26.5 31 23.8096606 24.3787958 19.5"></polygon>
                    <polygon id="Fill-98" fill="#FFFFFF" points="55 18.7072642 53.630909 16.5 41 23.2923073 42.369091 25.5"></polygon>
                    <polygon id="Fill-99" fill="#FFFFFF" points="41 23.2926307 42.3691364 25.5 55 18.7073693 53.6308636 16.5"></polygon>
                    <polygon id="Fill-100" fill="#FFFFFF" points="41 23.2923073 42.3691364 25.5 55 18.7076927 53.6303995 16.5"></polygon>
                    <polygon id="Fill-101" fill="#FFFFFF" points="13 36.5 15 36.5 15 28.5 13 28.5"></polygon>
                    <polygon id="Fill-102" fill="#FFFFFF" points="13 36.5 15 36.5 15 28.5 13 28.5"></polygon>
                    <polygon id="Fill-103" fill="#FFFFFF" points="13 36.5 15 36.5 15 28.5 13 28.5"></polygon>
                    <polygon id="Fill-104" fill="#FFFFFF" points="0 36.1868054 6.62374621 40.5 8 37.8095398 1.37625379 33.5"></polygon>
                    <polygon id="Fill-105" fill="#FFFFFF" points="0 36.1868054 6.62374621 40.5 8 37.8100619 1.37625379 33.5"></polygon>
                    <polygon id="Fill-106" fill="#FFFFFF" points="0 36.1862833 6.62335996 40.5 8 37.8095398 1.37617354 33.5"></polygon>
                    <polygon id="Fill-107" fill="#FFFFFF" points="1.37625379 51.5 8 47.1903394 6.62374621 44.5 0 48.8127937"></polygon>
                    <polygon id="Fill-108" fill="#FFFFFF" points="0 48.8129942 1.37625379 51.5 8 47.1901387 6.62374621 44.5"></polygon>
                    <polygon id="Fill-109" fill="#FFFFFF" points="0 48.8133159 1.37617354 51.5 8 47.1903394 6.62335996 44.5"></polygon>
                    <polygon id="Fill-110" fill="#FFFFFF" points="31 33.7072642 29.6276148 31.5 17 38.2927358 18.3691364 40.5"></polygon>
                    <polygon id="Fill-111" fill="#FFFFFF" points="17 38.2927358 18.3691364 40.5 31 33.7072642 29.6276148 31.5"></polygon>
                    <polygon id="Fill-112" fill="#FFFFFF" points="17 38.2928408 18.3691364 40.5 31 33.7071592 29.6276148 31.5"></polygon>
                    <polygon id="Fill-113" fill="#FFFFFF" points="13 62.5 15 62.5 15 47.5 13 47.5"></polygon>
                    <polygon id="Fill-114" fill="#FFFFFF" points="13 62.5 15 62.5 15 47.5 13 47.5"></polygon>
                    <polygon id="Fill-115" fill="#FFFFFF" points="13 62.5 15 62.5 15 47.5 13 47.5"></polygon>
                    <polygon id="Fill-116" fill="#FFFFFF" points="0 64.1868054 6.62374621 68.5 8 65.8126725 1.37625379 61.5"></polygon>
                    <polygon id="Fill-117" fill="#FFFFFF" points="0 64.1870058 6.62374621 68.5 8 65.8129942 1.37625379 61.5"></polygon>
                    <polygon id="Fill-118" fill="#FFFFFF" points="0 64.1870058 6.62335996 68.5 8 65.8129942 1.37617354 61.5"></polygon>
                    <polygon id="Fill-119" fill="#FFFFFF" points="1.37625379 78.5 8 74.1870058 6.62374621 71.5 0 75.8098613"></polygon>
                    <polygon id="Fill-120" fill="#FFFFFF" points="0 75.8100619 1.37625379 78.5 8 74.1878496 6.62374621 71.5"></polygon>
                    <polygon id="Fill-121" fill="#FFFFFF" points="0 75.8100619 1.37617354 78.5 8 74.1878496 6.62335996 71.5"></polygon>
                    <polygon id="Fill-122" fill="#FFFFFF" points="13 92.5 15 92.5 15 77.5 13 77.5"></polygon>
                    <polygon id="Fill-123" fill="#FFFFFF" points="13 92.5 15 92.5 15 77.5 13 77.5"></polygon>
                    <polygon id="Fill-124" fill="#FFFFFF" points="13 92.5 15 92.5 15 77.5 13 77.5"></polygon>
                    <polygon id="Fill-125" fill="#FFFFFF" points="0 91.1870058 6.62374621 95.5 8 92.8129942 1.37625379 88.5"></polygon>
                    <polygon id="Fill-126" fill="#FFFFFF" points="0 91.1870058 6.62374621 95.5 8 92.8129942 1.37625379 88.5"></polygon>
                    <polygon id="Fill-127" fill="#FFFFFF" points="0 91.1866841 6.62335996 95.5 8 92.8127937 1.37617354 88.5"></polygon>
                    <polygon id="Fill-128" fill="#FFFFFF" points="1.37625379 106.5 8 102.187006 6.62374621 99.5 0 103.812994"></polygon>
                    <polygon id="Fill-129" fill="#FFFFFF" points="0 103.812994 1.37625379 106.5 8 102.187006 6.62374621 99.5"></polygon>
                    <polygon id="Fill-130" fill="#FFFFFF" points="0 103.813316 1.37617354 106.5 8 102.187206 6.62335996 99.5"></polygon>
                    <polygon id="Fill-131" fill="#FFFFFF" points="13 113.5 15 113.5 15 105.5 13 105.5"></polygon>
                    <polygon id="Fill-132" fill="#FFFFFF" points="13 113.5 15 113.5 15 105.5 13 105.5"></polygon>
                    <polygon id="Fill-133" fill="#FFFFFF" points="13 113.5 15 113.5 15 105.5 13 105.5"></polygon>
                    <polygon id="Fill-134" fill="#FFFFFF" points="18.3691364 99.5 17 101.705324 29.6276148 108.5 31 106.294676"></polygon>
                    <polygon id="Fill-135" fill="#FFFFFF" points="17 101.705324 29.6276148 108.5 31 106.295105 18.3691364 99.5"></polygon>
                    <polygon id="Fill-136" fill="#FFFFFF" points="17 101.705324 29.6276148 108.5 31 106.294676 18.3691364 99.5"></polygon>
                    <polygon id="Fill-137" fill="#FFFFFF" points="24.3789566 120.5 31 116.186484 29.6210434 113.5 23 117.812994"></polygon>
                    <polygon id="Fill-138" fill="#FFFFFF" points="23 117.813516 24.3788762 120.5 31 116.187006 29.6211238 113.5"></polygon>
                    <polygon id="Fill-139" fill="#FFFFFF" points="23 117.813838 24.3787958 120.5 31 116.186684 29.6207379 113.5"></polygon>
                    <polygon id="Fill-140" fill="#FFFFFF" points="35 127.5 37 127.5 37 119.5 35 119.5"></polygon>
                    <polygon id="Fill-141" fill="#FFFFFF" points="35 127.5 37 127.5 37 119.5 35 119.5"></polygon>
                    <polygon id="Fill-142" fill="#FFFFFF" points="35 127.5 37 127.5 37 119.5 35 119.5"></polygon>
                    <polygon id="Fill-143" fill="#FFFFFF" points="42.3685013 114.5 41 116.707636 53.6314987 123.5 55 121.292793"></polygon>
                    <polygon id="Fill-144" fill="#FFFFFF" points="41 116.707531 53.6319626 123.5 55 121.292469 42.3685013 114.5"></polygon>
                    <polygon id="Fill-145" fill="#FFFFFF" points="41 116.707102 53.6319173 123.5 55 121.29204 42.3685466 114.5"></polygon>
                    <polygon id="Fill-146" fill="#FFFFFF" points="48.3762538 135.5 55 131.190661 53.6237462 128.5 47 132.812994"></polygon>
                    <polygon id="Fill-147" fill="#FFFFFF" points="47 132.812672 48.3762538 135.5 55 131.190982 53.6242127 128.5"></polygon>
                    <polygon id="Fill-148" fill="#FFFFFF" points="47 132.812672 48.3762538 135.5 55 131.190982 53.6242127 128.5"></polygon>
                    <polygon id="Fill-149" fill="#FFFFFF" points="60 139.5 62 139.5 62 131.5 60 131.5"></polygon>
                    <polygon id="Fill-150" fill="#FFFFFF" points="60 139.5 62 139.5 62 131.5 60 131.5"></polygon>
                    <polygon id="Fill-151" fill="#FFFFFF" points="60 139.5 62 139.5 62 131.5 60 131.5"></polygon>
                    <polygon id="Fill-152" fill="#FFFFFF" points="72 132.812994 65.3756922 128.5 64 131.191183 70.6210434 135.5"></polygon>
                    <polygon id="Fill-153" fill="#FFFFFF" points="64 131.190982 70.6211238 135.5 72 132.812672 65.375612 128.5"></polygon>
                    <polygon id="Fill-154" fill="#FFFFFF" points="64 131.190982 70.6207379 135.5 72 132.812672 65.3755319 128.5"></polygon>
                    <polygon id="Fill-155" fill="#FFFFFF" points="78 116.707531 76.6337623 114.5 64 121.292469 65.3662377 123.5"></polygon>
                    <polygon id="Fill-156" fill="#FFFFFF" points="64 121.292469 65.3661925 123.5 78 116.707531 76.6338075 114.5"></polygon>
                    <polygon id="Fill-157" fill="#FFFFFF" points="64 121.292469 65.3661473 123.5 78 116.707531 76.6333896 114.5"></polygon>
                    <polygon id="Fill-158" fill="#FFFFFF" points="82 127.5 84 127.5 84 119.5 82 119.5"></polygon>
                    <polygon id="Fill-159" fill="#FFFFFF" points="82 127.5 84 127.5 84 119.5 82 119.5"></polygon>
                    <polygon id="Fill-160" fill="#FFFFFF" points="82 127.5 84 127.5 84 119.5 82 119.5"></polygon>
                    <polygon id="Fill-161" fill="#FFFFFF" points="97 117.813195 90.3752259 113.5 89 116.186805 95.6210434 120.5"></polygon>
                    <polygon id="Fill-162" fill="#FFFFFF" points="89 116.187006 95.6210434 120.5 97 117.813516 90.3752259 113.5"></polygon>
                    <polygon id="Fill-163" fill="#FFFFFF" points="89 116.186684 95.6210434 120.5 97 117.813838 90.3752259 113.5"></polygon>
                    <polygon id="Fill-164" fill="#FFFFFF" points="102 101.705429 100.633446 99.5 88 106.295 89.3665542 108.5"></polygon>
                    <polygon id="Fill-165" fill="#FFFFFF" points="88 106.294781 89.3661361 108.5 102 101.705219 100.633401 99.5"></polygon>
                    <polygon id="Fill-166" fill="#FFFFFF" points="88 106.294676 89.3661361 108.5 102 101.705324 100.633401 99.5"></polygon>
                    <polygon id="Fill-167" fill="#FFFFFF" points="106 113.5 108 113.5 108 105.5 106 105.5"></polygon>
                    <polygon id="Fill-168" fill="#FFFFFF" points="106 113.5 108 113.5 108 105.5 106 105.5"></polygon>
                    <polygon id="Fill-169" fill="#FFFFFF" points="106 113.5 108 113.5 108 105.5 106 105.5"></polygon>
                    <polygon id="Fill-170" fill="#FFFFFF" points="120 103.812994 113.376254 99.5 112 102.187528 118.623746 106.5"></polygon>
                    <polygon id="Fill-171" fill="#FFFFFF" points="112 102.187006 118.623746 106.5 120 103.812994 113.376254 99.5"></polygon>
                    <polygon id="Fill-172" fill="#FFFFFF" points="112 102.187206 118.623746 106.5 120 103.813316 113.376254 99.5"></polygon>
                    <polygon id="Fill-173" fill="#FFFFFF" points="118.623746 88.5 112 92.8135163 113.376254 95.5 120 91.1870058"></polygon>
                    <polygon id="Fill-174" fill="#FFFFFF" points="112 92.8129942 113.376254 95.5 120 91.1870058 118.623746 88.5"></polygon>
                    <polygon id="Fill-175" fill="#FFFFFF" points="112 92.8127937 113.376254 95.5 120 91.1866841 118.623746 88.5"></polygon>
                    <polygon id="Fill-176" fill="#FFFFFF" points="106 92.5 108 92.5 108 77.5 106 77.5"></polygon>
                    <polygon id="Fill-177" fill="#FFFFFF" points="106 92.5 108 92.5 108 77.5 106 77.5"></polygon>
                    <polygon id="Fill-178" fill="#FFFFFF" points="106 92.5 108 92.5 108 77.5 106 77.5"></polygon>
                    <polygon id="Fill-179" fill="#FFFFFF" points="120 75.8098613 113.376254 71.5 112 74.187528 118.623746 78.5"></polygon>
                    <polygon id="Fill-180" fill="#FFFFFF" points="112 74.1873275 118.623746 78.5 120 75.8095398 113.376254 71.5"></polygon>
                    <polygon id="Fill-181" fill="#FFFFFF" points="112 74.1878496 118.623746 78.5 120 75.8100619 113.376254 71.5"></polygon>
                    <polygon id="Fill-182" fill="#FFFFFF" points="118.623746 61.5 112 65.8129942 113.376254 68.5 120 64.1870058"></polygon>
                    <polygon id="Fill-183" fill="#FFFFFF" points="112 65.8129942 113.376254 68.5 120 64.1870058 118.623746 61.5"></polygon>
                    <polygon id="Fill-184" fill="#FFFFFF" points="112 65.8129942 113.376254 68.5 120 64.1870058 118.623746 61.5"></polygon>
                    <polygon id="Fill-185" fill="#FFFFFF" points="106 36.5 108 36.5 108 28.5 106 28.5"></polygon>
                    <polygon id="Fill-186" fill="#FFFFFF" points="106 36.5 108 36.5 108 28.5 106 28.5"></polygon>
                    <polygon id="Fill-187" fill="#FFFFFF" points="106 36.5 108 36.5 108 28.5 106 28.5"></polygon>
                    <polygon id="Fill-188" fill="#FFFFFF" points="106 62.5 108 62.5 108 47.5 106 47.5"></polygon>
                    <polygon id="Fill-189" fill="#FFFFFF" points="106 62.5 108 62.5 108 47.5 106 47.5"></polygon>
                    <polygon id="Fill-190" fill="#FFFFFF" points="106 62.5 108 62.5 108 47.5 106 47.5"></polygon>
                    <polygon id="Fill-191" fill="#FFFFFF" points="120 48.8093391 113.376254 44.5 112 47.187528 118.623746 51.5"></polygon>
                    <polygon id="Fill-192" fill="#FFFFFF" points="112 47.187528 118.623746 51.5 120 48.8093391 113.376254 44.5"></polygon>
                    <polygon id="Fill-193" fill="#FFFFFF" points="112 47.187528 118.623746 51.5 120 48.8098613 113.376254 44.5"></polygon>
                    <polygon id="Fill-194" fill="#FFFFFF" points="118.623746 33.5 112 37.8135163 113.376254 40.5 120 36.1870058"></polygon>
                    <polygon id="Fill-195" fill="#FFFFFF" points="112 37.8135163 113.376254 40.5 120 36.187528 118.623746 33.5"></polygon>
                    <polygon id="Fill-196" fill="#FFFFFF" points="112 37.8138381 113.376254 40.5 120 36.1877285 118.623746 33.5"></polygon>
                    <polygon id="Fill-197" fill="#FFFFFF" points="82 22.5 84 22.5 84 14.5 82 14.5"></polygon>
                    <polygon id="Fill-198" fill="#FFFFFF" points="82 22.5 84 22.5 84 14.5 82 14.5"></polygon>
                    <polygon id="Fill-199" fill="#FFFFFF" points="82 22.5 84 22.5 84 14.5 82 14.5"></polygon>
                    <polygon id="Fill-200" fill="#FFFFFF" points="65.3702147 16.5 64 18.7026507 76.6302485 25.5 78 23.299487"></polygon>
                    <polygon id="Fill-201" fill="#FFFFFF" points="64 18.7027553 76.6298306 25.5 78 23.2993824 65.3701694 16.5"></polygon>
                    <polygon id="Fill-202" fill="#FFFFFF" points="64 18.7030782 76.6298306 25.5 78 23.2990594 65.3701694 16.5"></polygon>
                    <polygon id="Fill-203" fill="#FFFFFF" points="89.3656053 31.5 88 33.7031205 100.634395 40.5 102 38.2973076"></polygon>
                    <polygon id="Fill-204" fill="#FFFFFF" points="88 33.7032253 100.63444 40.5 102 38.2976309 89.3655601 31.5"></polygon>
                    <polygon id="Fill-205" fill="#FFFFFF" points="88 33.7032253 100.633977 40.5 102 38.2976309 89.3655601 31.5"></polygon>
                    <polygon id="Fill-206" fill="#FFFFFF" points="95.6237462 19.5 89 23.8129942 90.3762538 26.5 97 22.1870058"></polygon>
                    <polygon id="Fill-207" fill="#FFFFFF" points="89 23.8126725 90.3760933 26.5 97 22.1868054 95.6234402 19.5"></polygon>
                    <polygon id="Fill-208" fill="#FFFFFF" points="89 23.8126725 90.3760933 26.5 97 22.1868054 95.6234402 19.5"></polygon>
                    <polygon id="Fill-209" fill="#FFFFFF" points="170.867876 51.2708458 170.867876 78.091961 144 49.5 144 91.90583 150.131654 91.90583 150.131654 65.0429303 177 93.5 177 51.2708458"></polygon>
                    <polygon id="Fill-210" fill="#FFFFFF" points="144 91.9053923 150.131654 91.9053923 150.131654 65.0427698 177 93.5 177 51.2712817 170.867876 51.2712817 170.867876 78.0912117 144 49.5"></polygon>
                    <polygon id="Fill-211" fill="#FFFFFF" points="144 91.9053923 150.131741 91.9053923 150.131741 65.043224 177 93.5 177 51.2712817 170.868259 51.2712817 170.868259 78.0912117 144 49.5"></polygon>
                    <polygon id="Fill-212" fill="#FFFFFF" points="190.880091 87.1933575 190.880091 72.7911847 206.833914 72.7911847 206.833914 67.4850004 190.880091 67.4850004 190.880091 56.8098503 208.424527 56.8098503 208.424527 51.5 185 51.5 185 92.5 209 92.5 209 87.1933575"></polygon>
                    <polygon id="Fill-213" fill="#FFFFFF" points="185 51.5 185 92.5 209 92.5 209 87.1932982 190.880091 87.1932982 190.880091 72.7909644 206.833914 72.7909644 206.833914 67.4847208 190.880091 67.4847208 190.880091 56.8094514 208.424981 56.8094514 208.424981 51.5"></polygon>
                    <polygon id="Fill-214" fill="#FFFFFF" points="185 51.5 185 92.5 209 92.5 209 87.1932982 190.880091 87.1932982 190.880091 72.7914226 206.833914 72.7914226 206.833914 67.4847208 190.880091 67.4847208 190.880091 56.8094514 208.424527 56.8094514 208.424527 51.5"></polygon>
                    <path d="M233.142873,75.7320413 C238.497882,74.0846565 241.945163,69.4054605 241.945163,63.7344436 C241.945163,56.5291965 236.76142,51.5 229.310475,51.5 L217,51.5 L217,92.4862565 L222.973669,92.4862565 L222.973669,76.1177749 L226.7415,76.1177749 L237.82427,92.4280758 L237.872811,92.5 L245,92.5 L233.142873,75.7320413 Z M235.971036,63.7344436 C235.971036,66.004408 235.277733,67.9110864 234.02759,69.1370046 C232.819118,70.3102394 231.111505,70.932819 229.109445,70.932819 L222.986491,70.932819 L222.986491,56.8146027 L229.320092,56.8146027 C230.492845,56.8146027 232.187178,57.0349565 233.586606,58.0854163 C235.167373,59.2531537 235.967831,61.1566254 235.967831,63.7509358 L235.971036,63.7344436 Z" id="Fill-215" fill="#FFFFFF"></path>
                    <g id="分组" transform="translate(218.000000, 50.500000)">
                        <mask id="mask-2" fill="white">
                            <use xlink:href="#path-1"></use>
                        </mask>
                        <g id="Clip-218"></g>
                        <polygon id="Fill-217" fill="#FFFFFF" mask="url(#mask-2)" points="-990.387097 774.2 1405.43742 774.2 1405.43742 -945.026133 -990.387097 -945.026133"></polygon>
                        <polygon id="Fill-219" fill="#FFFFFF" mask="url(#mask-2)" points="-8.23787097 50.4023333 36.0134194 50.4023333 36.0134194 -8.55493333 -8.23787097 -8.55493333"></polygon>
                    </g>
                    <polygon id="Fill-220" fill="#FFFFFF" points="275.565653 51.5 264.608837 79.0771924 252.431194 51.5998401 252.390199 51.5 246 51.5 264.608837 93.5 282 51.5"></polygon>
                    <g id="分组" transform="translate(246.000000, 50.500000)">
                        <mask id="mask-4" fill="white">
                            <use xlink:href="#path-3"></use>
                        </mask>
                        <g id="Clip-223"></g>
                        <polygon id="Fill-222" fill="#FFFFFF" mask="url(#mask-4)" points="-1002.66667 767.064516 1355.12889 767.064516 1355.12889 -936.316215 -1002.66667 -936.316215"></polygon>
                        <polygon id="Fill-224" fill="#FFFFFF" mask="url(#mask-4)" points="-7.79644444 51.3614194 44.0937778 51.3614194 44.0937778 -8.46313978 -7.79644444 -8.46313978"></polygon>
                    </g>
                    <g id="分组" transform="translate(283.000000, 50.500000)">
                        <path d="M19.8162273,0.109428261 C8.74168182,0.109428261 0.390772727,9.04401522 0.390772727,20.8902978 C0.390772727,32.9817326 8.57713636,41.7579065 19.8612273,41.7579065 C31.1448636,41.7579065 39.2871364,32.9817326 39.2871364,20.8902978 C39.2871364,9.04036304 30.9166818,0.109428261 19.8162273,0.109428261 Z M33.3539545,20.8902978 C33.3539545,25.4943196 31.5953182,29.986037 28.6466818,32.9073196 C26.3189545,35.2679935 23.1216818,36.5549283 19.8162273,36.4617978 C13.0857727,36.3230152 6.27486364,30.9264717 6.27486364,20.8802543 C6.2635,16.9642109 7.59804545,13.1641239 10.0535,10.1232326 C12.5935,7.0695587 16.0603182,5.38910217 19.8130455,5.38910217 C28.1798636,5.39549348 33.3539545,13.4384935 33.3539545,20.8866457 L33.3539545,20.8902978 Z" id="Fill-225" fill="#3CBA8D"></path>
                        <path d="M58.7322273,16.7992239 C56.5004091,15.9847891 51.3135909,13.7843543 51.3135909,10.9119196 C51.3135909,7.50900652 53.6899545,5.39257174 57.5163182,5.39257174 C59.8799545,5.39257174 62.1472273,6.68498478 63.3463182,7.97785435 L63.4463182,8.08422391 L67.8326818,4.66898478 L67.7167727,4.53978913 C65.0658636,1.70752826 61.3758636,0.0900717391 57.5072273,0.06405 C48.3485909,0.06405 45.0849545,5.69296304 45.0849545,10.9603109 C45.0849545,16.6184413 50.3935909,19.5908543 55.5872273,21.7529413 C61.8895,24.3893543 63.7099545,26.1538109 63.7099545,29.6083109 C63.7099545,31.5823109 63.1154091,33.1983978 61.9445,34.4132022 C60.5749545,35.7768326 58.5935909,36.4680065 56.0631364,36.4680065 C54.6222273,36.4762239 53.2058636,36.0968543 51.9604091,35.3696152 C50.4549545,34.5168326 49.2585909,33.1080065 48.4031364,31.1947239 L48.3485909,31.0751152 L42.6054091,32.3999413 L42.6731364,32.5747891 C45.6122273,40.1617239 51.7254091,41.7549848 56.3395,41.7549848 C64.4913182,41.7549848 69.9708636,36.8724848 69.9708636,29.6083109 C69.9835909,23.6397457 66.5108636,19.687637 58.7322273,16.7992239" id="Fill-227" fill="#FFFFFF"></path>
                    </g>
                    <g id="分组" transform="translate(325.000000, 50.500000)">
                        <mask id="mask-6" fill="white">
                            <use xlink:href="#path-5"></use>
                        </mask>
                        <g id="Clip-230"></g>
                        <polygon id="Fill-229" fill="#FFFFFF" mask="url(#mask-6)" points="-1116.78689 757.826087 1318.31344 757.826087 1318.31344 -924.025565 -1116.78689 -924.025565"></polygon>
                        <polygon id="Fill-231" fill="#FFFFFF" mask="url(#mask-6)" points="-8.11908197 50.1639783 36.4261639 50.1639783 36.4261639 -8.34521739 -8.11908197 -8.34521739"></polygon>
                    </g>
                </g>
            </g>
        </g>
    </g>
</svg>