<svg xmlns="http://www.w3.org/2000/svg" viewBox="0 0 375 431.15"><defs><style>.cls-1{fill:#3cba8d;}.cls-2{fill:#cecece;}</style></defs><title>资源 11@2x11</title><g id="图层_2" data-name="图层 2"><g id="图层_1-2" data-name="图层 1"><rect class="cls-1" x="105.92" y="193" width="15.2" height="67.57"/><rect class="cls-1" x="253.69" y="170.6" width="15.2" height="67.57"/><polygon class="cls-1" points="115.74 165.1 115.58 165 107.98 178.26 165.94 211.95 166.1 212.04 173.71 198.79 115.74 165.1"/><polygon class="cls-1" points="208.87 219.23 208.71 219.13 201.11 232.39 259.07 266.08 259.24 266.17 266.84 252.92 208.87 219.23"/><rect class="cls-2" x="183.24" width="8.34" height="23.33"/><polygon class="cls-2" points="147.59 25.57 167.66 37.23 171.83 29.96 151.76 18.3 147.59 25.57"/><polygon class="cls-2" points="223.06 18.3 202.98 29.96 207.16 37.23 227.23 25.57 223.06 18.3"/><rect class="cls-2" x="107.96" y="107.33" width="11.12" height="44.8"/><polygon class="cls-2" points="54.54 144.84 93.08 167.24 98.64 157.54 60.1 135.14 54.54 144.84"/><polygon class="cls-2" points="60.1 210.17 98.64 187.77 93.08 178.07 54.54 200.47 60.1 210.17"/><rect class="cls-2" x="181.84" y="64.4" width="11.12" height="44.8"/><polygon class="cls-2" points="128.43 101.91 166.96 124.31 172.53 114.61 133.99 92.21 128.43 101.91"/><polygon class="cls-2" points="133.99 167.24 172.53 144.84 166.96 135.14 128.43 157.54 133.99 167.24"/><rect class="cls-2" x="181.84" y="150.26" width="11.12" height="44.8"/><polygon class="cls-2" points="246.39 157.54 207.85 135.14 202.29 144.84 240.83 167.24 246.39 157.54"/><polygon class="cls-2" points="240.83 92.21 202.29 114.61 207.85 124.31 246.39 101.91 240.83 92.21"/><rect class="cls-2" x="181.86" y="236.12" width="11.12" height="44.8"/><polygon class="cls-2" points="128.44 273.63 166.97 296.03 172.54 286.33 134 263.94 128.44 273.63"/><polygon class="cls-2" points="134 338.96 172.54 316.56 166.97 306.87 128.44 329.26 134 338.96"/><rect class="cls-2" x="181.86" y="321.98" width="11.12" height="44.8"/><polygon class="cls-2" points="246.4 329.26 207.86 306.87 202.3 316.56 240.84 338.96 246.4 329.26"/><polygon class="cls-2" points="240.84 263.94 202.3 286.33 207.86 296.03 246.4 273.63 240.84 263.94"/><rect class="cls-2" x="255.74" y="279.05" width="11.12" height="44.8"/><polygon class="cls-2" points="320.29 286.33 281.75 263.94 276.19 273.63 314.72 296.03 320.29 286.33"/><polygon class="cls-2" points="314.72 221 276.19 243.4 281.75 253.1 320.29 230.7 314.72 221"/><polygon class="cls-2" points="54.54 230.7 93.08 253.1 98.64 243.4 60.1 221 54.54 230.7"/><rect class="cls-2" x="107.96" y="279.05" width="11.12" height="44.8"/><rect class="cls-2" x="255.73" y="107.33" width="11.12" height="44.8"/><polygon class="cls-2" points="207.88 210.17 246.41 187.77 240.85 178.07 202.31 200.47 207.88 210.17"/><polygon class="cls-2" points="320.27 200.47 281.74 178.07 276.18 187.77 314.71 210.17 320.27 200.47"/><polygon class="cls-2" points="314.71 135.14 276.18 157.54 281.74 167.24 320.27 144.84 314.71 135.14"/><polygon class="cls-2" points="166.94 221 128.4 243.4 133.97 253.1 172.5 230.7 166.94 221"/><polygon class="cls-2" points="93.05 263.94 54.52 286.33 60.08 296.03 98.61 273.63 93.05 263.94"/><rect class="cls-2" x="109.44" y="42.93" width="8.34" height="23.33"/><polygon class="cls-2" points="73.79 68.5 93.86 80.17 98.04 72.89 77.97 61.23 73.79 68.5"/><polygon class="cls-2" points="171.83 57.77 167.66 50.49 129.19 72.89 133.36 80.17 171.83 57.77"/><rect class="cls-2" x="35.65" y="85.86" width="8.34" height="23.33"/><polygon class="cls-2" points="0 111.43 20.07 123.1 24.24 115.82 4.17 104.16 0 111.43"/><polygon class="cls-2" points="4.17 155.29 24.24 143.63 20.07 136.35 0 148.02 4.17 155.29"/><polygon class="cls-2" points="98.04 100.7 93.86 93.42 55.4 115.82 59.57 123.1 98.04 100.7"/><rect class="cls-2" x="35.65" y="150.26" width="8.34" height="44.8"/><polygon class="cls-2" points="0 197.29 20.07 208.96 24.24 201.69 4.17 190.02 0 197.29"/><polygon class="cls-2" points="4.17 241.16 24.24 229.49 20.07 222.22 0 233.88 4.17 241.16"/><rect class="cls-2" x="35.65" y="236.12" width="8.34" height="44.8"/><polygon class="cls-2" points="0 283.15 20.07 294.82 24.24 287.55 4.17 275.88 0 283.15"/><polygon class="cls-2" points="4.17 327.02 24.24 315.35 20.07 308.08 0 319.75 4.17 327.02"/><rect class="cls-2" x="35.65" y="321.98" width="8.34" height="23.33"/><polygon class="cls-2" points="59.57 308.08 55.4 315.35 93.86 337.75 98.04 330.48 59.57 308.08"/><polygon class="cls-2" points="77.97 369.95 98.04 358.28 93.86 351.01 73.79 362.68 77.97 369.95"/><rect class="cls-2" x="109.44" y="364.91" width="8.34" height="23.33"/><polygon class="cls-2" points="133.36 351.01 129.19 358.28 167.68 380.65 171.85 373.38 133.36 351.01"/><polygon class="cls-2" points="151.78 412.85 171.85 401.19 167.68 393.91 147.61 405.58 151.78 412.85"/><rect class="cls-2" x="183.25" y="407.82" width="8.34" height="23.33"/><polygon class="cls-2" points="227.25 405.58 207.17 393.91 203 401.19 223.07 412.85 227.25 405.58"/><polygon class="cls-2" points="245.73 358.28 241.56 351.01 203 373.38 207.17 380.65 245.73 358.28"/><rect class="cls-2" x="257.13" y="364.91" width="8.34" height="23.33"/><polygon class="cls-2" points="301.13 362.68 281.05 351.01 276.88 358.28 296.95 369.95 301.13 362.68"/><polygon class="cls-2" points="319.6 315.35 315.43 308.08 276.88 330.48 281.05 337.75 319.6 315.35"/><rect class="cls-2" x="331.01" y="321.98" width="8.34" height="23.33"/><polygon class="cls-2" points="375 319.75 354.93 308.08 350.76 315.35 370.83 327.02 375 319.75"/><polygon class="cls-2" points="370.83 275.88 350.76 287.55 354.93 294.82 375 283.15 370.83 275.88"/><rect class="cls-2" x="331.01" y="236.12" width="8.34" height="44.8"/><polygon class="cls-2" points="375 233.88 354.93 222.22 350.76 229.49 370.83 241.16 375 233.88"/><polygon class="cls-2" points="370.83 190.02 350.76 201.69 354.93 208.96 375 197.29 370.83 190.02"/><rect class="cls-2" x="331.01" y="85.96" width="8.34" height="23.33"/><rect class="cls-2" x="331.01" y="150.35" width="8.34" height="44.7"/><polygon class="cls-2" points="375 148.11 354.93 136.45 350.76 143.72 370.83 155.39 375 148.11"/><polygon class="cls-2" points="370.83 104.25 350.76 115.92 354.93 123.19 375 111.52 370.83 104.25"/><rect class="cls-2" x="257.1" y="42.99" width="8.34" height="23.33"/><polygon class="cls-2" points="207.16 50.49 202.98 57.77 241.52 80.23 245.69 72.96 207.16 50.49"/><polygon class="cls-2" points="281.02 93.49 276.85 100.76 315.43 123.19 319.6 115.92 281.02 93.49"/><polygon class="cls-2" points="296.92 61.29 276.85 72.96 281.02 80.23 301.09 68.56 296.92 61.29"/></g></g></svg>