<svg xmlns="http://www.w3.org/2000/svg" viewBox="0 0 650 649.01"><defs><style>.cls-1{fill:#fff;}.cls-2{fill:#3cba8d;}.cls-3{fill:#cecece;}</style></defs><title>资源 13@2x11</title><g id="图层_2" data-name="图层 2"><g id="图层_1-2" data-name="图层 1"><path class="cls-1" d="M615,568.06c-6.94-2.52-23.07-9.33-23.07-18.22,0-10.53,7.39-17.08,19.29-17.08,7.35,0,14.4,4,18.13,8l.31.33,13.64-10.57-.36-.4a44,44,0,0,0-31.71-13.86c-28.48,0-38.63,17.42-38.63,33.72,0,17.51,16.51,26.71,32.66,33.4,19.6,8.16,25.26,13.62,25.26,24.31,0,6.11-1.85,11.11-5.49,14.87-4.26,4.22-10.42,6.36-18.29,6.36a25.13,25.13,0,0,1-12.76-3.4c-4.68-2.64-8.4-7-11.06-12.92l-.17-.37-17.86,4.1.21.54c9.14,23.48,28.15,28.41,42.5,28.41C633,645.3,650,630.19,650,607.7,650,589.23,639.21,577,615,568.06Z"/><rect class="cls-2" x="243.42" y="193" width="15.2" height="67.57"/><rect class="cls-2" x="391.19" y="170.6" width="15.2" height="67.57"/><polygon class="cls-2" points="253.24 165.1 253.08 165 245.48 178.26 303.44 211.95 303.6 212.04 311.21 198.79 253.24 165.1"/><polygon class="cls-2" points="346.37 219.23 346.21 219.13 338.61 232.39 396.57 266.08 396.74 266.17 404.34 252.92 346.37 219.23"/><rect class="cls-3" x="320.74" width="8.34" height="23.33"/><polygon class="cls-3" points="285.09 25.57 305.16 37.23 309.33 29.96 289.26 18.3 285.09 25.57"/><polygon class="cls-3" points="360.56 18.3 340.48 29.96 344.66 37.23 364.73 25.57 360.56 18.3"/><rect class="cls-3" x="245.46" y="107.33" width="11.12" height="44.8"/><polygon class="cls-3" points="192.04 144.84 230.58 167.24 236.14 157.54 197.6 135.14 192.04 144.84"/><polygon class="cls-3" points="197.6 210.17 236.14 187.77 230.58 178.07 192.04 200.47 197.6 210.17"/><rect class="cls-3" x="319.34" y="64.4" width="11.12" height="44.8"/><polygon class="cls-3" points="265.93 101.91 304.46 124.31 310.03 114.61 271.49 92.21 265.93 101.91"/><polygon class="cls-3" points="271.49 167.24 310.03 144.84 304.46 135.14 265.93 157.54 271.49 167.24"/><rect class="cls-3" x="319.34" y="150.26" width="11.12" height="44.8"/><polygon class="cls-3" points="383.89 157.54 345.35 135.14 339.79 144.84 378.33 167.24 383.89 157.54"/><polygon class="cls-3" points="378.33 92.21 339.79 114.61 345.35 124.31 383.89 101.91 378.33 92.21"/><rect class="cls-3" x="319.36" y="236.12" width="11.12" height="44.8"/><polygon class="cls-3" points="265.94 273.63 304.48 296.03 310.04 286.33 271.5 263.94 265.94 273.63"/><polygon class="cls-3" points="271.5 338.96 310.04 316.56 304.48 306.87 265.94 329.26 271.5 338.96"/><rect class="cls-3" x="319.36" y="321.98" width="11.12" height="44.8"/><polygon class="cls-3" points="383.9 329.26 345.36 306.87 339.8 316.56 378.34 338.96 383.9 329.26"/><polygon class="cls-3" points="378.34 263.94 339.8 286.33 345.36 296.03 383.9 273.63 378.34 263.94"/><rect class="cls-3" x="393.24" y="279.05" width="11.12" height="44.8"/><polygon class="cls-3" points="457.79 286.33 419.25 263.94 413.69 273.63 452.22 296.03 457.79 286.33"/><polygon class="cls-3" points="452.22 221 413.69 243.4 419.25 253.1 457.79 230.7 452.22 221"/><polygon class="cls-3" points="192.04 230.7 230.58 253.1 236.14 243.4 197.6 221 192.04 230.7"/><rect class="cls-3" x="245.46" y="279.05" width="11.12" height="44.8"/><rect class="cls-3" x="393.23" y="107.33" width="11.12" height="44.8"/><polygon class="cls-3" points="345.38 210.17 383.91 187.77 378.35 178.07 339.81 200.47 345.38 210.17"/><polygon class="cls-3" points="457.77 200.47 419.24 178.07 413.68 187.77 452.21 210.17 457.77 200.47"/><polygon class="cls-3" points="452.21 135.14 413.68 157.54 419.24 167.24 457.77 144.84 452.21 135.14"/><polygon class="cls-3" points="304.44 221 265.9 243.4 271.46 253.1 310 230.7 304.44 221"/><polygon class="cls-3" points="230.55 263.94 192.02 286.33 197.58 296.03 236.12 273.63 230.55 263.94"/><rect class="cls-3" x="246.94" y="42.93" width="8.34" height="23.33"/><polygon class="cls-3" points="211.29 68.5 231.37 80.17 235.54 72.89 215.47 61.23 211.29 68.5"/><polygon class="cls-3" points="309.33 57.77 305.16 50.49 266.69 72.89 270.86 80.17 309.33 57.77"/><rect class="cls-3" x="173.15" y="85.86" width="8.34" height="23.33"/><polygon class="cls-3" points="137.5 111.43 157.57 123.1 161.74 115.82 141.67 104.16 137.5 111.43"/><polygon class="cls-3" points="141.67 155.29 161.74 143.63 157.57 136.35 137.5 148.02 141.67 155.29"/><polygon class="cls-3" points="235.54 100.7 231.37 93.42 192.9 115.82 197.07 123.1 235.54 100.7"/><rect class="cls-3" x="173.15" y="150.26" width="8.34" height="44.8"/><polygon class="cls-3" points="137.5 197.29 157.57 208.96 161.74 201.69 141.67 190.02 137.5 197.29"/><polygon class="cls-3" points="141.67 241.16 161.74 229.49 157.57 222.22 137.5 233.88 141.67 241.16"/><rect class="cls-3" x="173.15" y="236.12" width="8.34" height="44.8"/><polygon class="cls-3" points="137.5 283.15 157.57 294.82 161.74 287.55 141.67 275.88 137.5 283.15"/><polygon class="cls-3" points="141.67 327.02 161.74 315.35 157.57 308.08 137.5 319.75 141.67 327.02"/><rect class="cls-3" x="173.15" y="321.98" width="8.34" height="23.33"/><polygon class="cls-3" points="197.07 308.08 192.9 315.35 231.37 337.75 235.54 330.48 197.07 308.08"/><polygon class="cls-3" points="215.47 369.95 235.54 358.28 231.37 351.01 211.29 362.68 215.47 369.95"/><rect class="cls-3" x="246.94" y="364.91" width="8.34" height="23.33"/><polygon class="cls-3" points="270.86 351.01 266.69 358.28 305.18 380.65 309.35 373.38 270.86 351.01"/><polygon class="cls-3" points="289.28 412.85 309.35 401.19 305.18 393.91 285.11 405.58 289.28 412.85"/><rect class="cls-3" x="320.75" y="407.82" width="8.34" height="23.33"/><polygon class="cls-3" points="364.75 405.58 344.67 393.91 340.5 401.19 360.57 412.85 364.75 405.58"/><polygon class="cls-3" points="383.23 358.28 379.06 351.01 340.5 373.38 344.67 380.65 383.23 358.28"/><rect class="cls-3" x="394.63" y="364.91" width="8.34" height="23.33"/><polygon class="cls-3" points="438.63 362.68 418.55 351.01 414.38 358.28 434.45 369.95 438.63 362.68"/><polygon class="cls-3" points="457.1 315.35 452.93 308.08 414.38 330.48 418.55 337.75 457.1 315.35"/><rect class="cls-3" x="468.51" y="321.98" width="8.34" height="23.33"/><polygon class="cls-3" points="512.5 319.75 492.43 308.08 488.26 315.35 508.33 327.02 512.5 319.75"/><polygon class="cls-3" points="508.33 275.88 488.26 287.55 492.43 294.82 512.5 283.15 508.33 275.88"/><rect class="cls-3" x="468.51" y="236.12" width="8.34" height="44.8"/><polygon class="cls-3" points="512.5 233.88 492.43 222.22 488.26 229.49 508.33 241.16 512.5 233.88"/><polygon class="cls-3" points="508.33 190.02 488.26 201.69 492.43 208.96 512.5 197.29 508.33 190.02"/><rect class="cls-3" x="468.51" y="85.96" width="8.34" height="23.33"/><rect class="cls-3" x="468.51" y="150.35" width="8.34" height="44.7"/><polygon class="cls-3" points="512.5 148.11 492.43 136.45 488.26 143.72 508.33 155.39 512.5 148.11"/><polygon class="cls-3" points="508.33 104.25 488.26 115.92 492.43 123.19 512.5 111.52 508.33 104.25"/><rect class="cls-3" x="394.6" y="42.99" width="8.34" height="23.33"/><polygon class="cls-3" points="344.66 50.49 340.48 57.77 379.02 80.23 383.19 72.96 344.66 50.49"/><polygon class="cls-3" points="418.52 93.49 414.35 100.76 452.93 123.19 457.1 115.92 418.52 93.49"/><polygon class="cls-3" points="434.42 61.29 414.35 72.96 418.52 80.23 438.59 68.56 434.42 61.29"/><polygon class="cls-1" points="80.8 517.65 80.8 601.08 0 512.14 0 644.05 18.44 644.05 18.44 560.49 99.25 649.01 99.25 517.65 80.8 517.65"/><polygon class="cls-1" points="145.83 627.69 145.83 583.29 195.48 583.29 195.48 566.93 145.83 566.93 145.83 534.02 200.43 534.02 200.43 517.65 127.52 517.65 127.52 644.05 202.21 644.05 202.21 627.69 145.83 627.69"/><path class="cls-1" d="M274.65,592.34c16.53-5.08,27.17-19.51,27.17-37,0-22.22-16-37.73-39-37.73h-38v126.4H243.3V593.53h11.59l34.21,50.3.15.22h22Zm8.73-37c0,7-2.14,12.88-6,16.66-3.73,3.62-9,5.54-15.18,5.54H243.3V534h19.55c3.62,0,8.85.68,13.17,3.92C280.9,541.52,283.38,547.39,283.38,555.39Z"/><polygon class="cls-1" points="407.63 517.65 373.26 603.5 335.04 517.96 334.91 517.65 314.86 517.65 373.26 648.4 427.82 517.65 407.63 517.65"/><path class="cls-2" d="M494,516.41c-34.44,0-60.41,27.65-60.41,64.31,0,37.42,25.46,64.58,60.55,64.58s60.41-27.16,60.41-64.58C554.53,544.05,528.5,516.41,494,516.41Zm42.1,64.31c0,14.25-5.47,28.15-14.64,37.19a37.19,37.19,0,0,1-27.46,11c-20.93-.43-42.11-17.13-42.11-48.22a52.58,52.58,0,0,1,11.75-33.29c7.9-9.45,18.68-14.65,30.35-14.65C520,532.77,536.09,557.66,536.09,580.71Z"/></g></g></svg>