
<svg width="370px" height="248px" viewBox="0 0 370 248" version="1.1" xmlns="http://www.w3.org/2000/svg" xmlns:xlink="http://www.w3.org/1999/xlink">
    <defs>
        <path d="M39.4243216,165.062482 L39.4243216,94.2049332 L83.8593751,141.978552 L83.8593751,97.1677572 L94.0011854,97.1677572 L94.0011854,167.722883 L49.5677034,120.17493 L49.5677034,165.062482 L39.4243216,165.062482 Z M119.618647,156.27272 L150.625585,156.27272 L150.625585,165.061408 L109.550704,165.061408 L109.550704,97.1666826 L149.643309,97.1666826 L149.643309,105.956906 L119.618647,105.956906 L119.618647,123.634066 L146.922795,123.634066 L146.922795,132.424289 L119.618647,132.424289 L119.618647,156.27272 Z M263.589446,97.1672967 L274.69153,97.1672967 L244.685728,167.398508 L212.573925,97.1672967 L223.598998,97.1672967 L223.669722,97.333092 L244.685728,143.279892 L263.589446,97.1672967 Z M377.626739,124.245206 C390.936981,129.04713 396.871504,135.614467 396.871504,145.537625 C396.871504,157.616122 387.504513,165.730883 373.562471,165.730883 C365.674397,165.730883 355.218258,163.082763 350.193716,150.468501 L350.077415,150.178359 L359.89861,147.978501 L359.989765,148.178069 C361.448249,151.365024 363.494528,153.69844 366.07045,155.116911 C368.679377,156.625956 371.326024,156.942195 373.086263,156.942195 C377.414567,156.942195 380.798314,155.792374 383.141633,153.524969 C385.142334,151.507792 386.159187,148.819759 386.159187,145.537625 C386.159187,139.791589 383.04262,136.862538 372.267438,132.478172 C363.384513,128.88287 354.305133,123.939713 354.305133,114.535433 C354.305133,105.778983 359.886037,96.4238274 375.549027,96.4238274 C382.041483,96.4238274 388.724108,99.2776564 392.987975,103.870801 L393.187573,104.087256 L385.687694,109.765746 L385.517957,109.589205 C383.466963,107.447682 379.589721,105.287737 375.549027,105.287737 C369.004707,105.287737 364.938868,108.801677 364.938868,114.460211 C364.938868,119.236037 373.812362,122.894281 377.626739,124.245206 Z M190.230342,137.982856 L210.263048,166.010066 L198.227143,166.010066 L198.145735,165.892331 L179.407734,138.627303 L173.05632,138.627303 L173.05632,166.010066 L162.953862,166.010066 L162.953862,97.4973876 L183.76621,97.4973876 C196.335965,97.4973876 205.115538,105.907719 205.115538,117.949257 C205.115538,127.408363 199.285451,135.231567 190.230342,137.982856 Z M195.011515,117.949257 C195.011515,113.616287 193.655753,110.434334 190.983369,108.490151 C188.611569,106.733416 185.749754,106.366268 183.76621,106.366268 L173.05632,106.366268 L173.05632,129.983049 L183.390479,129.983049 C186.789276,129.983049 189.665181,128.945119 191.708216,126.982347 C193.837357,124.931273 195.011515,121.724534 195.011515,117.949257 Z" id="path-1"></path>
        <path d="M56.1456018,7.08961454 L56.1456018,0 L58.7026541,0 L58.7026541,7.08961454 L56.1456018,7.08961454 Z M45.2224345,7.76896357 L46.5009607,5.55888652 L52.6510219,9.10369379 L51.3724957,11.3137708 L45.2224345,7.76896357 Z M68.3466822,5.55871284 L69.6252084,7.76878989 L63.4751472,11.3135972 L62.196621,9.10352011 L68.3466822,5.55871284 Z M33.0795882,46.2231753 L33.0795882,32.6110111 L36.4886995,32.6110111 L36.4886995,46.2231753 L33.0795882,46.2231753 Z M16.7119135,44.0104062 L18.4160313,41.0630578 L30.2240088,47.8695741 L28.519891,50.816054 L16.7119135,44.0104062 Z M18.4162064,63.8610664 L16.7120887,60.913718 L28.5200661,54.1080702 L30.2241839,57.0554185 L18.4162064,63.8610664 Z M55.7191345,33.1789445 L55.7191345,19.5667804 L59.1282457,19.5667804 L59.1282457,33.1789445 L55.7191345,33.1789445 Z M39.3513722,30.9656544 L41.05549,28.018306 L52.8634674,34.8248223 L51.1593496,37.7713022 L39.3513722,30.9656544 Z M41.0556651,50.8163146 L39.3515473,47.8689662 L51.1595248,41.0633184 L52.8636426,44.0106667 L41.0556651,50.8163146 Z M55.7191345,59.2682744 L55.7191345,45.6561103 L59.1282457,45.6561103 L59.1282457,59.2682744 L55.7191345,59.2682744 Z M75.496008,47.8693136 L73.7918902,50.8166619 L61.9839128,44.0101457 L63.6880306,41.0636657 L75.496008,47.8693136 Z M73.7916275,28.0185666 L75.4957453,30.9659149 L63.6877679,37.7715627 L61.9836501,34.8242144 L73.7916275,28.0185666 Z M55.7226373,85.3576044 L55.7226373,71.7454403 L59.1317485,71.7454403 L59.1317485,85.3576044 L55.7226373,85.3576044 Z M39.3550501,83.1445748 L41.0591679,80.1972264 L52.8671454,87.0037427 L51.1630276,89.9502226 L39.3550501,83.1445748 Z M41.0593431,102.995322 L39.3552253,100.047973 L51.1632027,93.2423256 L52.8673205,96.1896739 L41.0593431,102.995322 Z M55.7226373,111.447803 L55.7226373,97.8356386 L59.1317485,97.8356386 L59.1317485,111.447803 L55.7226373,111.447803 Z M75.499686,100.048234 L73.7955682,102.995582 L61.9875907,96.1890661 L63.6917085,93.2425861 L75.499686,100.048234 Z M73.7953055,80.1975738 L75.4994233,83.1449221 L63.6914458,89.95057 L61.987328,87.0032217 L73.7953055,80.1975738 Z M78.3621835,98.4027036 L78.3621835,84.7905394 L81.7712948,84.7905394 L81.7712948,98.4027036 L78.3621835,98.4027036 Z M98.1391446,87.0034822 L96.4350269,89.9508305 L84.6270494,83.1443143 L86.3311672,80.1978343 L98.1391446,87.0034822 Z M96.4347641,67.152822 L98.1388819,70.1001703 L86.3309045,76.9058182 L84.6267867,73.9584699 L96.4347641,67.152822 Z M16.7119135,70.099823 L18.4160313,67.1524746 L30.2240088,73.9589909 L28.519891,76.9054708 L16.7119135,70.099823 Z M33.0795882,98.4027036 L33.0795882,84.7905394 L36.4886995,84.7905394 L36.4886995,98.4027036 L33.0795882,98.4027036 Z M78.3586807,46.2231753 L78.3586807,32.6110111 L81.767792,32.6110111 L81.767792,46.2231753 L78.3586807,46.2231753 Z M63.6952113,63.8610664 L61.9910935,60.913718 L73.799071,54.1080702 L75.5031888,57.0554185 L63.6952113,63.8610664 Z M98.1354667,60.9139786 L96.4313489,63.8613269 L84.6233714,57.0548106 L86.3274892,54.1083307 L98.1354667,60.9139786 Z M96.4311738,41.0633184 L98.1352915,44.0106667 L86.3273141,50.8163146 L84.6231963,47.8689662 L96.4311738,41.0633184 Z M51.1521689,67.152822 L52.8562867,70.1001703 L41.0483092,76.9058182 L39.3441914,73.9584699 L51.1521689,67.152822 Z M28.5127102,80.1975738 L30.216828,83.1449221 L18.4088505,89.95057 L16.7047328,87.0032217 L28.5127102,80.1975738 Z M33.534078,20.1338453 L33.534078,13.0442308 L36.0902547,13.0442308 L36.0902547,20.1338453 L33.534078,20.1338453 Z M22.6113486,20.8137154 L23.8898748,18.6036383 L30.039936,22.1484456 L28.7614098,24.3585227 L22.6113486,20.8137154 Z M52.6507592,17.5525274 L40.8637986,24.3581753 L39.5852724,22.1480982 L51.372233,15.3424504 L52.6507592,17.5525274 Z M10.92343,33.1789445 L10.92343,26.0893299 L13.4796067,26.0893299 L13.4796067,33.1789445 L10.92343,33.1789445 Z M0.00026271086,33.8584672 L1.2787889,31.6483901 L7.42885013,35.1931974 L6.15032395,37.4032745 L0.00026271086,33.8584672 Z M1.27852619,47.1867515 L0,44.9766744 L6.15006124,41.4318672 L7.42858742,43.6419442 L1.27852619,47.1867515 Z M30.0396733,30.5972792 L18.2527127,37.4029271 L16.9741865,35.1928501 L28.7611471,28.3872022 L30.0396733,30.5972792 Z M10.92343,59.2682744 L10.92343,45.6561103 L13.4796067,45.6561103 L13.4796067,59.2682744 L10.92343,59.2682744 Z M0.00026271086,59.947884 L1.2787889,57.7378069 L7.42885013,61.2826142 L6.15032395,63.4926913 L0.00026271086,59.947884 Z M1.27852619,73.2762551 L0,71.0661781 L6.15006124,67.5213708 L7.42858742,69.7314478 L1.27852619,73.2762551 Z M10.92343,85.3576044 L10.92343,71.7454403 L13.4796067,71.7454403 L13.4796067,85.3576044 L10.92343,85.3576044 Z M0.00026271086,86.0373876 L1.2787889,83.8273106 L7.42885013,87.3721178 L6.15032395,89.5821949 L0.00026271086,86.0373876 Z M1.27852619,99.3657587 L0,97.1556817 L6.15006124,93.6108744 L7.42858742,95.8209515 L1.27852619,99.3657587 Z M10.92343,104.925253 L10.92343,97.8356386 L13.4796067,97.8356386 L13.4796067,104.925253 L10.92343,104.925253 Z M18.2527127,93.6107007 L30.0396733,100.416349 L28.7611471,102.627294 L16.9741865,95.8207778 L18.2527127,93.6107007 Z M23.8896121,112.410511 L22.6110859,110.200434 L28.7611471,106.655626 L30.0396733,108.865703 L23.8896121,112.410511 Z M33.5349537,117.969484 L33.5349537,110.879869 L36.0911304,110.879869 L36.0911304,117.969484 L33.5349537,117.969484 Z M40.8637986,106.655366 L52.6568891,113.453198 L51.3783629,115.663275 L39.5852724,108.865443 L40.8637986,106.655366 Z M46.50639,125.446665 L45.2278638,123.236588 L51.3779251,119.691781 L52.6564513,121.901858 L46.50639,125.446665 Z M56.1517317,131.005899 L56.1517317,123.916285 L58.7079084,123.916285 L58.7079084,131.005899 L56.1517317,131.005899 Z M69.6305502,123.236414 L68.352024,125.446492 L62.2019628,121.901684 L63.480489,119.691607 L69.6305502,123.236414 Z M75.2938958,108.865703 L63.4806641,115.663536 L62.2021379,113.45259 L74.0153696,106.655626 L75.2938958,108.865703 Z M78.7886508,117.969484 L78.7886508,110.879869 L81.3448275,110.879869 L81.3448275,117.969484 L78.7886508,117.969484 Z M92.2680823,110.200173 L90.9895561,112.41025 L84.8394949,108.865443 L86.1180211,106.655366 L92.2680823,110.200173 Z M97.9297641,95.8209515 L86.1182838,102.626599 L84.8397576,100.416522 L96.6512379,93.6108744 L97.9297641,95.8209515 Z M101.424694,104.925253 L101.424694,97.8356386 L103.980871,97.8356386 L103.980871,104.925253 L101.424694,104.925253 Z M114.903863,97.1554212 L113.625337,99.3654982 L107.475276,95.8206909 L108.753802,93.6106139 L114.903863,97.1554212 Z M113.6256,83.8271369 L114.904126,86.0372139 L108.754065,89.5820212 L107.475538,87.3719441 L113.6256,83.8271369 Z M101.424694,85.3576044 L101.424694,71.7454403 L103.980871,71.7454403 L103.980871,85.3576044 L101.424694,85.3576044 Z M114.903863,71.0659175 L113.625337,73.2759946 L107.475276,69.7311873 L108.753802,67.5211103 L114.903863,71.0659175 Z M113.6256,57.7376333 L114.904126,59.9477103 L108.754065,63.4925176 L107.475538,61.2824405 L113.6256,57.7376333 Z M101.424694,33.2067333 L101.424694,26.1171187 L103.980871,26.1171187 L103.980871,33.2067333 L101.424694,33.2067333 Z M101.424694,59.2682744 L101.424694,45.6847675 L103.980871,45.6847675 L103.980871,59.2682744 L101.424694,59.2682744 Z M114.903863,45.0048106 L113.625337,47.2148876 L107.475276,43.6700804 L108.753802,41.4600033 L114.903863,45.0048106 Z M113.6256,31.6765263 L114.904126,33.8866033 L108.754065,37.4314106 L107.475538,35.2213336 L113.6256,31.6765263 Z M78.7781424,20.1529501 L78.7781424,13.0633356 L81.334319,13.0633356 L81.334319,20.1529501 L78.7781424,20.1529501 Z M63.4748845,15.3421899 L75.2837377,22.1678109 L74.0052115,24.377888 L62.1963583,17.5522669 L63.4748845,15.3421899 Z M86.1078629,28.4063938 L97.9298517,35.2215941 L96.6513255,37.4316711 L84.8293368,30.6164709 L86.1078629,28.4063938 Z M90.9796607,18.62283 L92.2581869,20.832907 L86.1081257,24.3777143 L84.8295995,22.1676372 L90.9796607,18.62283 Z" id="path-3"></path>
    </defs>
    <g id="Page-1" stroke="none" stroke-width="1" fill="none" fill-rule="evenodd">
        <g id="homepag_v6" transform="translate(-534.000000, -156.000000)">
            <g id="Group-6" transform="translate(501.000000, 156.000000)">
                <g id="Atoms-/-Logo-/-Brand-/-Color" transform="translate(0.000000, 65.000000)">
                    <path d="M310.975549,96.6409792 C329.976874,96.6409792 344.305742,111.521055 344.305742,131.250922 C344.305742,151.391476 330.319835,166.010066 311.051063,166.010066 C291.739814,166.010066 277.722443,151.391476 277.722443,131.250922 C277.722443,111.521055 292.018274,96.6409792 310.975549,96.6409792 Z M334.152194,131.250922 C334.152194,118.841117 325.291831,105.448434 310.975549,105.448434 C304.548954,105.448434 298.616349,108.247869 294.269548,113.331459 C290.157157,118.141259 287.798903,124.672249 287.798903,131.250922 C287.798903,147.982933 299.461167,156.971889 310.980268,157.20415 C316.733526,157.317973 321.93773,155.270694 326.094172,151.265348 C331.139482,146.403251 334.152194,138.920145 334.152194,131.250922 Z" id="Combined-Shape" fill="#47CA94" fill-rule="evenodd"></path>
                    <mask id="mask-2" fill="white">
                        <use xlink:href="#path-1"></use>
                    </mask>
                    <use id="Combined-Shape" fill="#194575" fill-rule="evenodd" xlink:href="#path-1"></use>
                    <g id="Atoms-/-Colors-/-White" mask="url(#mask-2)" fill="#FFFFFF" fill-rule="evenodd">
                        <g transform="translate(0.000000, 59.948594)">
                            <rect x="0" y="0" width="438.270377" height="163.10062"></rect>
                        </g>
                    </g>
                </g>
                <g id="Atoms-/-Logo-/-Brand-/-Sign" transform="translate(153.000000, 0.000000)">
                    <g id="Group" stroke-width="1" transform="translate(7.558476, 0.000000)">
                        <mask id="mask-4" fill="white">
                            <use xlink:href="#path-3"></use>
                        </mask>
                        <use id="Combined-Shape" fill="#194575" xlink:href="#path-3"></use>
                        <g id="Atoms-/-Colors-/-White" mask="url(#mask-4)" fill="#FFFFFF">
                            <g transform="translate(-7.558476, 0.000000)">
                                <rect x="0" y="0" width="131.414405" height="130.418842"></rect>
                            </g>
                        </g>
                    </g>
                    <path d="M39.6264828,78.7292722 L39.6264828,58.3453278 L44.2715667,58.3453278 L44.2715667,78.7292722 L39.6264828,78.7292722 Z M84.7728568,71.9725589 L84.7728568,51.5886145 L89.4179408,51.5886145 L89.4179408,71.9725589 L84.7728568,71.9725589 Z M42.6265784,49.9271545 L60.3355243,60.0911067 L58.0138555,64.0897842 L57.9640867,64.0613331 L40.2551408,53.897381 L42.5776827,49.8987034 L42.6265784,49.9271545 Z M71.0792018,66.2566398 L88.7881477,76.420592 L86.4656058,80.4192695 L86.4167101,80.3908184 L68.7077642,70.2268663 L71.0303062,66.2281887 L71.0792018,66.2566398 Z" id="Combined-Shape" fill="#47CA94"></path>
                </g>
            </g>
        </g>
    </g>
</svg>
