<?xml version="1.0" encoding="UTF-8"?>
<svg width="31px" height="26px" viewBox="0 0 31 26" version="1.1" xmlns="http://www.w3.org/2000/svg" xmlns:xlink="http://www.w3.org/1999/xlink">
    <!-- Generator: Sketch 52.4 (67378) - http://www.bohemiancoding.com/sketch -->
    <title>medium</title>
    <desc>Created with Sketch.</desc>
    <defs>
        <polygon id="path-1" points="0 -5.68434189e-14 30.9642857 -5.68434189e-14 30.9642857 25.9489918 0 25.9489918"></polygon>
    </defs>
    <g id="Page-1" stroke="none" stroke-width="1" fill="none" fill-rule="evenodd">
        <g id="homepag_v6-copy-3" transform="translate(-618.000000, -10679.000000)">
            <g id="community" transform="translate(-10.000000, 10006.000000)">
                <g id="分组" transform="translate(628.000000, 673.000000)">
                    <g>
                        <mask id="mask-2" fill="white">
                            <use xlink:href="#path-1"></use>
                        </mask>
                        <g id="Clip-2"></g>
                        <path d="M20.8928571,21.4316229 L29.4414286,25.669552 C29.9121429,25.9019226 30.3457143,25.9345112 30.6321429,25.7581079 C30.8493571,25.6249199 30.9642857,25.3819226 30.9642857,25.0553286 L30.9642857,5.20039673 L20.8928571,21.4316229 Z M21.4928571,0.0882441417 C21.4592857,0.0719498638 21.4257143,0.0577809264 21.3942857,0.0471542234 C21.3871429,0.0450288828 21.3793571,0.0429035422 21.3714286,0.0400697548 L21.3592857,0.0400697548 L21.3285714,0.0287346049 C20.9386429,-0.0711564033 20.5100714,0.0960370572 20.3064286,0.42546485 L14.0478571,10.510206 L20.6907143,21.216255 L30.9035714,4.75690899 L21.4928571,0.0882441417 Z M10.4164286,16.2330398 L20.3064286,21.1376174 L10.4164286,5.19827139 L10.4164286,16.2330398 Z M0.5435,0.125791826 C0.442071429,0.125791826 0.35,0.149879019 0.270714286,0.198761853 C0.0964285714,0.30573733 0,0.523938965 0,0.812276839 L0,20.52977 C0,21.0044294 0.36,21.5811052 0.786428571,21.7893886 L8.89571429,25.810533 C9.23357143,25.9791433 9.54578571,25.9940207 9.775,25.8537482 C10.0043571,25.7134757 10.1307143,25.430097 10.1307143,25.0553286 L10.1307143,4.78666376 L0.947142857,0.232767302 C0.803571429,0.161922616 0.667142857,0.125791826 0.5435,0.125791826 Z" id="Fill-1" fill="#FFFFFF" mask="url(#mask-2)"></path>
                    </g>
                </g>
            </g>
        </g>
    </g>
</svg>