<?xml version="1.0" encoding="UTF-8"?>
<svg width="39px" height="33px" viewBox="0 0 39 33" version="1.1" xmlns="http://www.w3.org/2000/svg" xmlns:xlink="http://www.w3.org/1999/xlink">
    <!-- Generator: Sketch 52.4 (67378) - http://www.bohemiancoding.com/sketch -->
    <title>reddit</title>
    <desc>Created with Sketch.</desc>
    <defs>
        <polygon id="path-1" points="0.000307692308 1.26 38.8338462 1.26 38.8338462 33.4781087 0.000307692308 33.4781087"></polygon>
    </defs>
    <g id="Page-1" stroke="none" stroke-width="1" fill="none" fill-rule="evenodd">
        <g id="homepag_v6-copy-3" transform="translate(-764.000000, -10675.000000)">
            <g id="community" transform="translate(-10.000000, 10006.000000)">
                <g id="blog" transform="translate(280.000000, 224.000000)">
                    <g id="Group-23" transform="translate(0.033543, 0.000000)">
                        <g id="&lt;!---Generator:-Adobe-Illustrator-23.0.1,-SVG-Export-Plug-In----&gt;-&lt;svg-version=&quot;1.1&quot;-xmlns=&quot;http://www.w3.org/2000/svg&quot;-xmlns:xlink=&quot;http://www.w3.org/1999/xlink&quot;-x=&quot;0px&quot;-y=&quot;0px&quot;-width=&quot;25.24px&quot;---height=&quot;21.17px&quot;-viewBox=&quot;0-0-25.24-21.17&quot;-style=&quot;enable-background:new-0-0-25.24-21.17;&quot;-xml:space=&quot;preserve&quot;&gt;-&lt;style-type=&quot;text/css&quot;&gt;--.st0{fill:#FFFFFF;}-&lt;/style&gt;-&lt;defs&gt;-&lt;/defs&gt;-&lt;g&gt;--&lt;path-class=&quot;st0&quot;-d=&quot;M10.56,12.23c0-0.94-0.76-1.7-1.7-1.7c-0.94,0-1.7,0.76-1.7,1.7c0,0.94,0.76,1.7,1.7,1.7---C9.8,13.93,10.56,13.17,10.56,12.23z&quot;/&gt;--&lt;path-class=&quot;st0&quot;-d=&quot;M21.55,7.05c-0.72,0-1.38,0.22-1.94,0.58c-1.75-1.02-3.96-1.65-6.37-1.73l1.39-3.99l2.88,0.69---c-0.01,0.09-0.03,0.18-0.03,0.28c0,1.59,1.29,2.88,2.88,2.88c1.58,0,2.88-1.29,2.88-2.88c0-1.59-1.29-2.88-2.88-2.88---c-1.04,0-1.93,0.55-2.44,1.37l-4.11-0.98L11.89,5.9c-2.4,0.12-4.58,0.79-6.3,1.84c0.04-0.02,0.07-0.05,0.1-0.07---c-0.58-0.39-1.26-0.61-2-0.61C1.65,7.05,0,8.75,0,10.86c0,1.41,0.75,2.62,1.85,3.28c0.45,3.93,5.14,7.03,10.84,7.03---c5.74,0,10.45-3.14,10.85-7.11c1.02-0.67,1.71-1.86,1.71-3.2C25.24,8.76,23.59,7.05,21.55,7.05z-M20.36,1.28---c0.88,0,1.59,0.72,1.59,1.59c0,0.88-0.72,1.6-1.59,1.6c-0.88,0-1.6-0.71-1.6-1.6C18.77,2,19.48,1.28,20.36,1.28z-M1.28,10.86---c0-1.4,1.08-2.53,2.41-2.53c0.29,0,0.57,0.06,0.82,0.16C3.12,9.61,2.18,11,1.9,12.55C1.52,12.1,1.28,11.51,1.28,10.86z----M12.69,19.89c-5.3,0-9.61-2.85-9.61-6.37c0-3.51,4.31-6.37,9.61-6.37c5.3,0,9.6,2.86,9.6,6.37---C22.29,17.04,17.98,19.89,12.69,19.89z-M23.44,12.41c-0.32-1.5-1.25-2.86-2.62-3.95c0.23-0.08,0.47-0.13,0.73-0.13---c1.32,0,2.41,1.13,2.41,2.53C23.96,11.45,23.77,11.98,23.44,12.41z&quot;/&gt;--&lt;path-class=&quot;st0&quot;-d=&quot;M16.18,10.53c-0.94,0-1.7,0.76-1.7,1.7c0,0.94,0.76,1.7,1.7,1.7c0.94,0,1.7-0.76,1.7-1.7---C17.88,11.29,17.12,10.53,16.18,10.53z&quot;/&gt;--&lt;path-class=&quot;st0&quot;-d=&quot;M15.9,16.02c-3.6,2.38-6.51,0.14-6.64,0.04c-0.27-0.22-0.68-0.18-0.9,0.1c-0.22,0.27-0.17,0.68,0.1,0.9---c0.02,0.02,1.68,1.32,4.1,1.32c1.2,0,2.59-0.32,4.05-1.29c0.29-0.2,0.38-0.59,0.18-0.89C16.59,15.9,16.2,15.82,15.9,16.02z&quot;/&gt;-&lt;/g&gt;-&lt;/svg&gt;-" transform="translate(493.966457, 444.000000)">
                            <g id="分组">
                                <path d="M16.2490769,20.1388478 C16.2490769,18.7068913 15.0783077,17.5473261 13.6352308,17.5473261 C12.1936923,17.5473261 11.0213846,18.7068913 11.0213846,20.1388478 C11.0213846,21.5647174 12.1936923,22.7242826 13.6352308,22.7242826 C15.0783077,22.7242826 16.2490769,21.5647174 16.2490769,20.1388478" id="Fill-1" fill="#FEFEFE"></path>
                                <g transform="translate(0.000000, 0.261739)">
                                    <mask id="mask-2" fill="white">
                                        <use xlink:href="#path-1"></use>
                                    </mask>
                                    <g id="Clip-4"></g>
                                    <path d="M36.0695385,20.1446304 C35.5833846,17.8559348 34.1464615,15.7878913 32.0372308,14.1291957 C32.3987692,14.0105 32.7649231,13.9328913 33.1618462,13.9328913 C35.1987692,13.9328913 36.8633846,15.6570217 36.8633846,17.784413 C36.8633846,18.6761522 36.5633846,19.4902826 36.0695385,20.1446304 M19.5203077,31.5272391 C11.3710769,31.5272391 4.74184615,27.1826739 4.74184615,21.8383261 C4.74184615,16.4909348 11.3710769,12.1433261 19.5203077,12.1433261 C27.668,12.1433261 34.2972308,16.4909348 34.2972308,21.8383261 C34.2972308,27.1826739 27.668,31.5272391 19.5203077,31.5272391 M1.96492308,17.784413 C1.96492308,15.6570217 3.62953846,13.9328913 5.67415385,13.9328913 C6.11876923,13.9328913 6.54492308,14.0272391 6.93569231,14.1763696 C4.79569231,15.8761522 3.36030769,18.0050652 2.92646154,20.3607174 C2.33261538,19.674413 1.96492308,18.7735435 1.96492308,17.784413 M31.328,3.20919565 C32.6803077,3.20919565 33.7803077,4.29723913 33.7803077,5.63484783 C33.7803077,6.98006522 32.6741538,8.06658696 31.328,8.06658696 C29.9695385,8.06658696 28.8710769,6.98006522 28.8710769,5.63484783 C28.8710769,4.29723913 29.9695385,3.20919565 31.328,3.20919565 M33.1618462,11.9835435 C32.0618462,11.9835435 31.0464615,12.3122391 30.1741538,12.8631087 C27.4818462,11.3170217 24.0864615,10.3537609 20.3787692,10.2228913 L22.5187692,4.15419565 L26.9418462,5.20876087 C26.9295385,5.34876087 26.8987692,5.48571739 26.8987692,5.63484783 C26.8987692,8.04832609 28.888,10.0159348 31.328,10.0159348 C33.7618462,10.0159348 35.7510769,8.04832609 35.7510769,5.63484783 C35.7510769,3.22136957 33.7618462,1.25984783 31.328,1.25984783 C29.7356923,1.25984783 28.3541538,2.09984783 27.5726154,3.34615217 L21.2449231,1.85028261 L18.2941538,10.2350652 C14.6033846,10.4252826 11.2449231,11.4418043 8.60030769,13.0289783 C8.65415385,12.9939783 8.70184615,12.9513696 8.75107692,12.9163696 C7.86030769,12.3274565 6.80953846,11.9835435 5.67415385,11.9835435 C2.54184615,11.9835435 0.000307692308,14.5811522 0.000307692308,17.7783261 C0.000307692308,19.9209348 1.148,21.7728913 2.84338462,22.7772391 C3.54030769,28.7576739 10.7449231,33.4781087 19.5203077,33.4781087 C28.3541538,33.4781087 35.5956923,28.6922391 36.208,22.6585435 C37.7833846,21.6328913 38.8341538,19.8296304 38.8341538,17.784413 C38.8341538,14.5887609 36.2864615,11.9835435 33.1618462,11.9835435" id="Fill-3" fill="#FEFEFE" mask="url(#mask-2)"></path>
                                </g>
                                <path d="M24.8863077,17.5470217 C23.4432308,17.5470217 22.2724615,18.706587 22.2724615,20.1385435 C22.2724615,21.5659348 23.4432308,22.7239783 24.8863077,22.7239783 C26.334,22.7239783 27.5063077,21.5659348 27.5063077,20.1385435 C27.5063077,18.706587 26.334,17.5470217 24.8863077,17.5470217" id="Fill-5" fill="#FEFEFE"></path>
                                <path d="M24.4649231,25.8928478 C18.9249231,29.5130652 14.4541538,26.1013261 14.2495385,25.9476304 C13.828,25.6082826 13.2095385,25.6721957 12.8664615,26.0952391 C12.5310769,26.5106739 12.5972308,27.1239348 13.0172308,27.4617609 C13.0526154,27.4921957 15.608,29.4765435 19.3218462,29.4765435 C21.1649231,29.4765435 23.3003077,28.9835 25.5526154,27.5150217 C26.0033846,27.2198043 26.1295385,26.6187174 25.8295385,26.1667609 C25.5295385,25.7208913 24.9218462,25.5961087 24.4649231,25.8928478" id="Fill-7" fill="#FEFEFE"></path>
                            </g>
                        </g>
                    </g>
                </g>
            </g>
        </g>
    </g>
</svg>