<?xml version="1.0" encoding="UTF-8"?>
<svg width="39px" height="30px" viewBox="0 0 39 30" version="1.1" xmlns="http://www.w3.org/2000/svg" xmlns:xlink="http://www.w3.org/1999/xlink">
    <!-- Generator: Sketch 52.4 (67378) - http://www.bohemiancoding.com/sketch -->
    <title>Twitter</title>
    <desc>Created with Sketch.</desc>
    <defs>
        <path d="M33.9305956,12.4446922 L33.8623824,12.3971496 C32.4526426,10.9946446 30.7927878,10.329049 28.8828178,10.4241341 L28.8146046,10.2815065 L28.8600801,10.2577352 C30.5881481,9.85362362 31.6113463,9.42574074 31.9296747,8.95031532 C32.0206256,8.56997497 31.9069369,8.35603353 31.5203954,8.30849099 C30.6563614,8.42734735 29.8378028,8.61751752 29.1329329,8.92654404 C30.0424424,8.30849099 30.3835085,7.88060811 30.1788689,7.66666667 C29.2920971,7.69043794 28.3143744,8.16586336 27.3139139,9.11671421 C27.6777177,8.45111862 27.8368819,8.07077828 27.7459309,8.02323574 C27.2457007,8.35603353 26.8364214,8.73637387 26.4726176,9.14048549 C25.6995345,10.0437938 25.0856156,10.8757883 24.6081231,11.636469 L24.5853854,11.6840115 C23.3802853,13.7521121 22.5162513,15.8202127 22.016021,17.9358559 L21.8341191,18.1022548 L21.7886436,18.126026 C21.061036,17.1751752 20.1742643,16.366952 19.1283283,15.7251276 C17.9004905,14.8693619 16.4452753,14.0849099 14.7626827,13.300458 C12.9436637,12.3020646 11.0791692,11.4938413 9.21467467,10.852017 C9.19193694,13.0627452 10.2378729,14.798048 12.2615315,16.0816967 L12.2615315,16.105468 C11.5566617,16.105468 10.8517918,16.2243243 10.1696597,16.4382658 C10.3060861,18.4825951 11.6930881,19.8851001 14.3079279,20.6457808 L14.2851902,20.6933233 C13.261992,20.6220095 12.4206957,21.0023498 11.7613013,21.7868018 C12.6253353,23.5458759 14.1487638,24.3778704 16.3543243,24.3303278 C15.9223073,24.5680405 15.5812412,24.8057533 15.3538639,25.0910085 C14.9445846,25.5426627 14.8081582,26.0656306 14.9445846,26.6599124 C15.4220771,27.5632207 16.2633734,27.9673323 17.5139489,27.8960185 L17.5821622,27.9911036 L17.5594244,28.0386461 C15.3993393,30.3682307 12.7844995,31.4141667 9.73764264,31.2002252 L9.69216717,31.2239965 C7.82767267,31.2002252 5.82675175,30.2731456 3.66666667,28.4189865 C5.82675175,31.6756507 8.71444444,34.0290065 12.2842693,35.5265966 C16.3543243,36.9291016 20.4471171,37.047958 24.5171722,35.8356231 L24.5853854,35.8356231 C28.5417518,34.6470596 31.8841992,32.1748473 34.6582032,28.466529 C35.9315165,26.5410561 36.7273373,24.6868969 37.0456657,22.9040516 C39.1147998,22.9753654 40.5927528,22.3573123 41.525,21.0261211 L41.5022623,20.9785786 C40.7973924,21.2400626 39.4558659,21.1687487 37.4776827,20.7408659 L37.4776827,20.5031532 C39.6605055,20.2416692 40.9565566,19.5047598 41.3658358,18.2924249 C39.8424074,18.910478 38.3417167,18.9342492 36.8637638,18.3399675 C36.5909109,16.2005531 35.6131882,14.2275375 33.9305956,12.4446922" id="path-1"></path>
    </defs>
    <g id="Page-1" stroke="none" stroke-width="1" fill="none" fill-rule="evenodd">
        <g id="homepag_v6-copy-3" transform="translate(-534.000000, -10676.000000)">
            <g id="community" transform="translate(-10.000000, 10006.000000)">
                <g id="blog" transform="translate(280.000000, 224.000000)">
                    <g id="Group-23" transform="translate(0.033543, 0.000000)">
                        <g id="Atoms-/-icons-/-System-/-SM-Twitter" transform="translate(261.000000, 439.000000)">
                            <mask id="mask-2" fill="white">
                                <use xlink:href="#path-1"></use>
                            </mask>
                            <use id="Mask" fill="#F9F9F9" fill-rule="evenodd" xlink:href="#path-1"></use>
                        </g>
                    </g>
                </g>
            </g>
        </g>
    </g>
</svg>