<?xml version="1.0" encoding="UTF-8"?>
<svg width="37px" height="26px" viewBox="0 0 37 26" version="1.1" xmlns="http://www.w3.org/2000/svg" xmlns:xlink="http://www.w3.org/1999/xlink">
    <!-- Generator: Sketch 52.4 (67378) - http://www.bohemiancoding.com/sketch -->
    <title>youtube</title>
    <desc>Created with Sketch.</desc>
    <defs>
        <polygon id="path-1" points="0 0.000120930233 36.8437811 0.000120930233 36.8437811 25.709586 0 25.709586"></polygon>
    </defs>
    <g id="Page-1" stroke="none" stroke-width="1" fill="none" fill-rule="evenodd">
        <g id="homepag_v6-copy-3" transform="translate(-847.000000, -10679.000000)">
            <g id="community" transform="translate(-10.000000, 10006.000000)">
                <g id="blog" transform="translate(280.000000, 224.000000)">
                    <g id="Group-23" transform="translate(0.033543, 0.000000)">
                        <g id="分组" transform="translate(576.966457, 449.000000)">
                            <g>
                                <mask id="mask-2" fill="white">
                                    <use xlink:href="#path-1"></use>
                                </mask>
                                <g id="Clip-2"></g>
                                <path d="M14.7374943,18.3640419 L14.7374943,7.34578605 L24.3095762,12.8550651 L14.7374943,18.3640419 Z M36.0740598,4.01476279 C35.6500762,2.43450698 34.4017811,1.18983256 32.8165434,0.767483721 C29.9432811,-0.000120930233 18.4217238,-0.000120930233 18.4217238,-0.000120930233 C18.4217238,-0.000120930233 6.90046967,-0.000120930233 4.02720738,0.767483721 C2.44196967,1.18983256 1.19367459,2.43450698 0.769994262,4.01476279 C-3.03278689e-05,6.87899535 -3.03278689e-05,12.8547628 -3.03278689e-05,12.8547628 C-3.03278689e-05,12.8547628 -3.03278689e-05,18.8308326 0.769994262,21.6950651 C1.19367459,23.2753209 2.44196967,24.519693 4.02720738,24.9423442 C6.90046967,25.7096465 18.4217238,25.7096465 18.4217238,25.7096465 C18.4217238,25.7096465 29.9432811,25.7096465 32.8165434,24.9423442 C34.4017811,24.519693 35.6500762,23.2753209 36.0740598,21.6950651 C36.8437811,18.8308326 36.8437811,12.8547628 36.8437811,12.8547628 C36.8437811,12.8547628 36.8437811,6.87899535 36.0740598,4.01476279 Z" id="Fill-1" fill="#FFFFFF" mask="url(#mask-2)"></path>
                            </g>
                        </g>
                    </g>
                </g>
            </g>
        </g>
    </g>
</svg>