<svg width="740px" height="435px" viewBox="0 0 740 435" version="1.1" xmlns="http://www.w3.org/2000/svg" xmlns:xlink="http://www.w3.org/1999/xlink">
    <g id="Page-1" stroke="none" stroke-width="1" fill="none" fill-rule="evenodd">
        <g id="homepag_v6-copy-3" transform="translate(-348.000000, -3874.000000)">
            <g id="图表四" transform="translate(-75.000000, 3618.000000)">
                <g id="Group-7" transform="translate(423.000000, 256.000000)">
                    <g id="Group-21">
                        <g id="Group-22">
                            <path d="M216.308428,0 C335.771845,0 432.616856,97.0424523 432.616856,216.747405 C432.616856,336.454169 335.771845,433.49481 216.308428,433.49481 C96.8450104,433.49481 0,336.454169 0,216.747405 C0,97.0424523 96.8450104,0 216.308428,0 Z" id="Stroke-3" fill="#11355C"></path>
                            <path d="M523.137696,1.50519031 C642.601114,1.50519031 739.446124,98.5476427 739.446124,218.252595 C739.446124,337.959359 642.601114,435 523.137696,435 C403.674279,435 306.829268,337.959359 306.829268,218.252595 C306.829268,98.5476427 403.674279,1.50519031 523.137696,1.50519031 Z" id="Stroke-5" fill="#11355C"></path>
                            <path d="M370.469614,64.7045703 C408.903184,103.828092 432.616856,157.513155 432.616856,216.747405 C432.616856,276.745871 408.288085,331.050301 368.976505,370.296112 C330.542938,331.172809 306.829268,277.487739 306.829268,218.252595 C306.829268,158.255039 331.158037,103.950609 370.469614,64.7045703 Z" id="合并形状" fill="#FFFFFF" opacity="0.109561012"></path>
                            <text id="store-of-assets" font-family="Helvetica" font-size="22" font-weight="normal" line-spacing="29" fill="#FFFFFF">
                                <tspan x="124.257368" y="210">STORE OF</tspan>
                                <tspan x="136.884809" y="239">ASSETS</tspan>
                            </text>
                            <text id="TO-ENFORCE-PROTOCOL" font-family="Helvetica" font-size="22" font-weight="normal" line-spacing="29" fill="#FFFFFF">
                                <tspan x="506.306394" y="168">TO ENFORCE </tspan>
                                <tspan x="516.688719" y="197">PROTOCOL</tspan>
                                <tspan x="469.632566" y="226">AND STOR HISTORY</tspan>
                                <tspan x="475.143309" y="255">OF ENFORCEMEN</tspan>
                                <tspan x="668.255613" y="255">T</tspan>
                            </text>
                        </g>
                    </g>
                    <text id="Nervos-CKB" font-family="Helvetica" font-size="22" font-weight="normal" line-spacing="29" fill="#FFFFFF">
                        <tspan x="322.73877" y="212">NERVOS</tspan>
                        <tspan x="346.382324" y="241">CKB</tspan>
                    </text>
                </g>
            </g>
        </g>
    </g>
</svg>
